<?xml version="1.0" encoding="UTF-8"?>
<svg version="1.1" xmlns="http://www.w3.org/2000/svg" width="1123" height="1123">
<path d="M0 0 C3.04324035 0.30895841 4.56587067 0.521947 6.66015625 2.828125 C13.06900285 13.89632804 15.44447359 24.98181956 16.4375 37.625 C19.94208679 74.95292446 37.95020141 101.83643886 60.74389648 130.58520508 C81.95848239 157.39577963 103.98823862 186.1344955 112 220 C112.18691406 220.78850342 112.37382813 221.57700684 112.56640625 222.3894043 C114.30190665 230.66169796 114.40213053 238.90018027 114.375 247.3125 C114.37312683 248.06720581 114.37125366 248.82191162 114.36932373 249.5994873 C114.30023316 262.50070477 113.10114212 274.44916868 110 287 C109.66722922 288.41679101 109.33613514 289.83397644 109.00634766 291.25146484 C101.40819184 323.72975181 101.40819184 323.72975181 93.54443359 338.57421875 C88.18946248 348.95916447 84.45582924 359.94128416 80.5625 370.9375 C80.04197052 372.3935112 80.04197052 372.3935112 79.51092529 373.87893677 C73.51205109 390.6979525 68.90020182 407.32519448 66.25 425 C66.08940598 426.06948883 66.08940598 426.06948883 65.92556763 427.1605835 C62.97127865 447.21989656 63.78417567 465.95320359 66.55834961 485.97143555 C70.52487405 514.8910704 63.91611332 536.45576731 47 560 C44.14897421 563.49310555 41.15812697 566.78378039 38 570 C37.24154785 570.80002441 37.24154785 570.80002441 36.46777344 571.61621094 C32.15565243 576.08101698 27.557341 579.78772684 22.5 583.375 C21.31978271 584.21635498 21.31978271 584.21635498 20.11572266 585.07470703 C-6.10826285 603.56428326 -34.73434119 615.49324886 -67.53125 610.421875 C-94.10531844 604.48051823 -114.71363803 588.13511495 -130.9375 566.9375 C-131.57679443 566.11072754 -132.21608887 565.28395508 -132.87475586 564.43212891 C-144.08181589 549.40512231 -145.39117526 532.23115608 -144 514 C-142.45951418 505.25520626 -138.16800142 498.11424876 -133 491 C-132.47664063 490.27941406 -131.95328125 489.55882812 -131.4140625 488.81640625 C-120.11800352 474.68255685 -103.24713834 470.78152492 -86.4375 467.0625 C-85.40206055 466.82635986 -84.36662109 466.59021973 -83.29980469 466.34692383 C-77.96383479 465.2333036 -74.07563787 464.42417712 -69 467 C-67.37818691 468.62181309 -67.75167677 470.38894637 -67.6875 472.625 C-67.84102802 481.64477143 -72.87972669 486.21089084 -78.9765625 492.27734375 C-81 494 -81 494 -83 494 C-83.28617187 494.58910156 -83.57234375 495.17820312 -83.8671875 495.78515625 C-85 498 -85 498 -86.0703125 499.68359375 C-89.77533805 505.84491401 -89.84467444 511.97541157 -89 519 C-88.1036947 522.33848547 -86.82203225 525.07091018 -85 528 C-84.63390625 528.61359375 -84.2678125 529.2271875 -83.890625 529.859375 C-78.22268412 537.76650239 -67.59649527 541.86431703 -58.3125 543.4375 C-56.21230671 543.6652318 -54.10753617 543.85520744 -52 544 C-50.66582031 544.10441406 -50.66582031 544.10441406 -49.3046875 544.2109375 C-36.67119694 544.70119236 -24.27428006 541.51920823 -13 536 C-12.06542969 535.55785156 -11.13085938 535.11570312 -10.16796875 534.66015625 C1.33726361 528.85122075 11.11081907 520.22266524 15.56665039 507.90283203 C17.12022967 503.15513423 17.34797152 498.98143977 17.1875 494.0234375 C17.16124415 492.29875244 17.13538099 490.57406137 17.10986328 488.84936523 C17.09119202 487.95627655 17.07252075 487.06318787 17.05328369 486.14303589 C16.25078523 444.45402201 24.51285612 408.16016994 38 369 C60.37585494 305.92586727 60.37585494 305.92586727 68.24023438 239.80737305 C68.25006847 237.67263621 68.28127862 235.53881476 68.3125 233.40429688 C68.31902162 232.02344308 68.32427538 230.64258258 68.328125 229.26171875 C68.34214355 227.42033325 68.34214355 227.42033325 68.35644531 225.54174805 C67.93467166 221.3508779 66.93048198 218.72892283 65 215 C62.84303706 213.64361876 62.84303706 213.64361876 60.3125 213.25 C56.99306031 212.47321251 53.95249423 211.64331787 50.8125 210.3125 C46.98413159 208.89316502 44.11499494 208.26517947 40 209 C30.09574697 215.19739809 24.28671621 226.25551466 21.40478516 237.27612305 C19.76994385 245.34866035 19.72504633 253.300295 19.65203857 261.49975586 C19.49473633 275.68181353 19.02658408 289.30549636 15 303 C14.76007324 303.83273437 14.52014648 304.66546875 14.27294922 305.5234375 C6.7495642 331.02066693 -4.76924512 352.98437115 -21.69140625 373.40332031 C-23.40983472 375.50005953 -25.05015105 377.65210902 -26.6875 379.8125 C-43.49952798 401.48042927 -65.65317737 417.34389125 -92 425 C-92.65597168 425.19609863 -93.31194336 425.39219727 -93.98779297 425.59423828 C-101.00803172 427.68170533 -107.61575312 429.60279566 -115 429 C-114.70369235 425.72921939 -114.2957503 424.29913676 -111.953125 421.9296875 C-111.06109375 421.25164062 -110.1690625 420.57359375 -109.25 419.875 C-108.25484375 419.09898437 -107.2596875 418.32296875 -106.234375 417.5234375 C-105.70521484 417.11448242 -105.17605469 416.70552734 -104.63085938 416.28417969 C-101.85602754 414.09920731 -99.18321613 411.79578707 -96.5 409.5 C-92.6105127 406.18502488 -88.68328904 402.93704613 -84.6875 399.75 C-58.07642451 377.96315457 -42.34056065 353.12536671 -31.3125 320.75 C-30.95607422 319.71713867 -30.59964844 318.68427734 -30.23242188 317.62011719 C-23.48432347 297.19495798 -20.44729158 276.04380346 -17.4375 254.8125 C-17.06137264 252.20235483 -16.68442239 249.59232811 -16.30664062 246.98242188 C-15.56227623 241.83275901 -14.82076234 236.68270053 -14.08203125 231.53222656 C-8.78326566 194.62781262 -8.78326566 194.62781262 -6.125 181.625 C-5.87306885 180.38314941 -5.6211377 179.14129883 -5.36157227 177.86181641 C-3.11619134 167.07145559 -0.43396413 156.47408972 3 146 C3.3403125 144.95199219 3.680625 143.90398437 4.03125 142.82421875 C7.10059733 134.60441359 11.88879527 127.19468457 16.45532227 119.73852539 C21.20602851 111.93472987 23.325948 106.24494788 23.125 97.125 C23.11146484 95.949375 23.11146484 95.949375 23.09765625 94.75 C23.07428063 92.83319945 23.03841653 90.91655809 23 89 C21.68 89 20.36 89 19 89 C18.75507812 89.68578125 18.51015625 90.3715625 18.2578125 91.078125 C17.06144848 93.85725633 15.63666385 96.34293332 14.03198242 98.90356445 C5.89196386 111.89427143 0.02075556 125.42148224 -5.1746521 139.82333374 C-5.66246117 141.17525394 -6.15398659 142.52584265 -6.65029907 143.87466431 C-16.93184321 171.98216292 -22.88485363 201.65088353 -29.09051514 230.86035156 C-41.99566867 291.57661574 -41.99566867 291.57661574 -49.8125 316.3125 C-50.01932404 316.96913635 -50.22614807 317.62577271 -50.4392395 318.30230713 C-61.67991769 353.78104564 -81.14508446 392.54783191 -115.28710938 411.02734375 C-141.68873342 424.56216972 -173.55527175 418.96959721 -201.77880859 415.77880859 C-238.6013287 411.63800497 -238.6013287 411.63800497 -272.71484375 423.90234375 C-277.25133581 428.06661082 -279.20493014 433.52010625 -279.5 439.625 C-278.89955941 452.45441387 -274.53143322 463.71856678 -265.4375 472.8125 C-258.08216789 478.83686725 -248.19643339 480.82392924 -238.85546875 480.44140625 C-232.16151811 479.40663686 -226.85853575 476.50273702 -222.5 471.3125 C-219.04714315 466.06927294 -217.50273244 460.68760212 -218.34765625 454.421875 C-220.21283151 447.1398734 -224.22971869 442.00113809 -229.25 436.5625 C-231.67626412 433.00975611 -232.57245525 429.2670643 -233 425 C-232 423 -232 423 -230.40625 422.3046875 C-216.96391532 420.60257369 -201.6284478 428.07982994 -191.4140625 435.96875 C-183.99638984 442.21015742 -180.64792904 448.18774605 -179.71875 457.95703125 C-179.30347882 471.43604174 -184.4164006 483.04283531 -193.25 493.125 C-194.81347262 494.76911763 -196.39700184 496.39439534 -198 498 C-198.76183594 498.7734375 -199.52367187 499.546875 -200.30859375 500.34375 C-206.80998854 506.57825666 -214.04931214 510.92030192 -222 515 C-223.08667969 515.55816406 -224.17335938 516.11632812 -225.29296875 516.69140625 C-243.56488649 525.57142474 -263.30296239 529.19588006 -283 523 C-298.08948432 517.29267473 -309.64592849 507.87915062 -318 494 C-318.54333984 493.10788818 -318.54333984 493.10788818 -319.09765625 492.19775391 C-333.09225339 469.02930575 -335.59471975 446.026936 -329.49609375 419.8359375 C-325.72517057 405.14330347 -319.28667022 391.24843207 -309 380 C-308.17242187 379.05253906 -308.17242187 379.05253906 -307.328125 378.0859375 C-294.58852591 364.31503753 -273.21716694 355.86209635 -254.72723389 354.87918091 C-240.59016727 354.50499868 -226.87451945 355.65828324 -212.875 357.5 C-186.91924386 361.02767889 -186.91924386 361.02767889 -161 358.5 C-160.19151611 358.32621826 -159.38303223 358.15243652 -158.55004883 357.97338867 C-129.914267 351.33452869 -103.38525973 334.15994836 -87.12109375 309.48828125 C-70.16315259 282.0839379 -60.86844016 245.66759355 -64.5 213.4375 C-64.5928125 212.59058594 -64.685625 211.74367188 -64.78125 210.87109375 C-64.8534375 210.25363281 -64.925625 209.63617187 -65 209 C-68.71626237 209.58584522 -71.50969705 210.62040479 -74.7890625 212.44921875 C-75.7167041 212.96049316 -76.6443457 213.47176758 -77.60009766 213.99853516 C-78.59831543 214.55589355 -79.5965332 215.11325195 -80.625 215.6875 C-82.79054929 216.87833632 -84.95726045 218.06706166 -87.125 219.25390625 C-88.25292969 219.87152832 -89.38085938 220.48915039 -90.54296875 221.12548828 C-105.14875172 229.04520591 -119.9756143 236.58410907 -134.88134766 243.92236328 C-139.6450866 246.2785483 -144.36144045 248.71224182 -149.0561676 251.20230103 C-161.54516285 257.82403445 -174.16661111 264.17708832 -186.80981445 270.49755859 C-189.96150864 272.07335429 -193.11038252 273.65470287 -196.25863743 275.23735619 C-198.72732013 276.47728922 -201.19783866 277.71352946 -203.66886711 278.94878006 C-205.38590659 279.80815987 -207.10113469 280.67115588 -208.81629944 281.53427124 C-214.40930177 284.32264857 -219.9783315 286.89964682 -225.84507751 289.0609436 C-229.50192263 290.65449689 -232.60631048 292.78423529 -235 296 C-235.5402348 302.07764152 -231.10971791 308.31051228 -227.46484375 312.95703125 C-219.45683414 321.6465736 -207.97058182 325.47831845 -196.38037109 326.15234375 C-185.8520044 326.51075623 -175.4889119 326.40835969 -165.1328125 324.33984375 C-164.42898438 324.22769531 -163.72515625 324.11554688 -163 324 C-162 325 -162 325 -161.91015625 326.78515625 C-162.45299501 334.89989973 -166.15412826 339.15412826 -171.75 344.75 C-186.6583066 355.07113534 -209.25095047 353.87189277 -226.56640625 351.31640625 C-231.12365616 350.47730088 -235.56198702 349.32521954 -240 348 C-240.80453613 347.76442383 -241.60907227 347.52884766 -242.43798828 347.28613281 C-253.96697487 343.84565115 -263.4525466 340.79973971 -270 330 C-275.87191623 318.413451 -279.55225503 305.36013743 -281.4609375 292.5390625 C-281.58557373 291.70275299 -281.71020996 290.86644348 -281.83862305 290.00479126 C-283.93328482 275.12858869 -284.93815832 260.09532407 -286.1875 245.12884521 C-288.08357246 198.2906173 -288.08357246 198.2906173 -310 159 C-318.09255807 152.82150784 -327.38748801 149.48492528 -337.625 150.0625 C-349.70798503 151.7440632 -357.80420526 157.6051757 -365.4375 167 C-372.75303482 181.04582685 -373.67877864 201.30634074 -369.0234375 216.3828125 C-363.62712358 230.18254656 -353.56736819 242.81320857 -339.8046875 248.984375 C-335.10128172 250.82408353 -330.77038871 252.12499608 -325.7265625 252.1328125 C-324.49836792 252.13559204 -324.49836792 252.13559204 -323.24536133 252.13842773 C-322.38064209 252.13399658 -321.51592285 252.12956543 -320.625 252.125 C-319.29601685 252.12318726 -319.29601685 252.12318726 -317.94018555 252.12133789 C-311.40657538 252.08296393 -304.96348617 251.73462442 -298.45703125 251.12109375 C-297.64621094 251.08113281 -296.83539063 251.04117188 -296 251 C-294.37045548 252.62954452 -294.73802336 254.54074724 -294.60546875 256.79296875 C-294.53884033 257.80576904 -294.47221191 258.81856934 -294.40356445 259.86206055 C-294.33226318 260.95945557 -294.26096191 262.05685059 -294.1875 263.1875 C-293.50424938 272.92645458 -292.26052407 282.36598246 -290.2331543 291.91674805 C-289.27935113 296.56449147 -288.62706477 300.32911455 -290 305 C-292.99820838 307.99820838 -295.79068602 307.29077727 -299.89575195 307.3293457 C-301.52516724 307.32100708 -301.52516724 307.32100708 -303.1875 307.3125 C-304.30793701 307.30758545 -305.42837402 307.3026709 -306.58276367 307.29760742 C-341.88200552 306.81358013 -377.81737541 297.35361076 -405 274 C-405.81960205 273.29786377 -405.81960205 273.29786377 -406.65576172 272.58154297 C-422.65652262 258.70555693 -435.81245025 243.23008183 -437.83984375 221.37109375 C-439.94951785 190.13762595 -432.01674422 158.24647033 -411.3125 134.3125 C-397.58419421 119.92845079 -381.45552996 110.39020272 -362 106 C-361.01773438 105.77570313 -360.03546875 105.55140625 -359.0234375 105.3203125 C-334.60353662 100.51531853 -307.74560784 106.44875088 -287 120 C-264.42923517 136.15598182 -250.49732985 159.23083229 -245.74609375 186.42578125 C-244.08395421 197.49260852 -244 208.82439327 -244 220 C-237.98756878 218.72606558 -233.09421562 216.8236313 -227.75 213.8125 C-226.97696533 213.3803418 -226.20393066 212.94818359 -225.4074707 212.50292969 C-218.42359883 208.47212988 -212.07655925 203.74287314 -205.69458008 198.83154297 C-199.58422362 194.13982051 -193.34659329 189.71214505 -186.9375 185.4375 C-186.10565186 184.87836914 -185.27380371 184.31923828 -184.41674805 183.74316406 C-168.17749508 173 -168.17749508 173 -164 173 C-165.46091154 169.43328919 -165.85769715 169.06803689 -169.59741211 167.2800293 C-171.15195866 166.69674216 -172.71246914 166.12920193 -174.27734375 165.57421875 C-175.11729385 165.26353958 -175.95724396 164.95286041 -176.82264709 164.63276672 C-179.52287407 163.63753456 -182.22982516 162.66226294 -184.9375 161.6875 C-186.69514284 161.04363028 -188.45230996 160.39846034 -190.20898438 159.75195312 C-197.14937319 157.2035666 -204.09767796 154.67802889 -211.06079102 152.19238281 C-220.68005096 148.73735985 -229.91931218 144.97133495 -239.0625 140.375 C-240.20009766 139.8284375 -241.33769531 139.281875 -242.50976562 138.71875 C-243.59064453 138.17992187 -244.67152344 137.64109375 -245.78515625 137.0859375 C-246.74301025 136.6120459 -247.70086426 136.1381543 -248.68774414 135.64990234 C-251.42121872 133.69944081 -252.07147652 132.17803221 -253 129 C-245.49445652 128.69401647 -239.04726711 129.44640334 -231.8125 131.375 C-177.80403488 144.63411772 -114.48248354 133.31967952 -67 105 C-62.13947585 101.91520939 -57.54970566 98.52290176 -53 95 C-52.04867188 94.27167969 -51.09734375 93.54335938 -50.1171875 92.79296875 C-19.96475517 68.95450729 -5.6144481 37.57740264 0 0 Z " fill="#FCFBFC" transform="translate(518,460)"/>
<path d="M0 0 C3.69230769 0.69230769 3.69230769 0.69230769 5 2 C5.1924076 3.83013142 5.32395272 5.66672856 5.4296875 7.50390625 C5.53990234 9.20450195 5.53990234 9.20450195 5.65234375 10.93945312 C5.79907823 13.32710634 5.93984762 15.71513473 6.07421875 18.10351562 C6.50997594 24.65095208 7.28844107 30.00641756 10 36 C12.33949474 36.34006141 12.33949474 36.34006141 15 36 C24.58701968 28.17347096 27.47323281 13.24511419 31 2 C34.01281724 5.73042394 35.03503837 9.35560118 36.1875 13.9375 C39.73417442 26.84590563 46.70093784 36.42992692 56 46 C56.57363281 46.63550781 57.14726563 47.27101563 57.73828125 47.92578125 C62.47922881 53.02880596 67.99327061 56.53087287 74 60 C74.88171875 60.515625 75.7634375 61.03125 76.671875 61.5625 C104.0389672 76.40566865 140.19432699 79.82546419 170.65820312 83.46972656 C186.31377167 85.36128048 201.93849526 87.52908406 217.56182861 89.66796875 C219.78270134 89.97040817 222.00420259 90.26750631 224.22607422 90.5625 C227.59250319 91.01650017 230.95259121 91.50038531 234.3125 92 C235.21661621 92.11730469 236.12073242 92.23460937 237.05224609 92.35546875 C245.534607 93.69487614 251.0769014 98.27076605 256.25 105 C257.00796875 105.95648437 257.7659375 106.91296875 258.546875 107.8984375 C259.35640625 108.92195312 260.1659375 109.94546875 261 111 C272.08652083 124.65330958 284.18860015 137.69353105 298.05078125 148.5625 C302.08714585 151.89851525 305.88057055 155.46884736 309.6875 159.0625 C310.38875 159.72386963 311.09 160.38523926 311.8125 161.06665039 C315.26595531 164.3440998 318.65380198 167.66430788 321.9765625 171.07421875 C325.93515159 175.04441802 330.16545174 178.4447606 334.6875 181.75 C335.50202637 182.34707764 336.31655273 182.94415527 337.15576172 183.55932617 C345.57091589 189.60136525 354.43391557 194.72290524 363.53222656 199.65673828 C365.82378159 200.90408056 368.09681306 202.17948018 370.3671875 203.46484375 C403.87417235 222.16714768 447.54979821 231.26910191 485.7890625 226.22265625 C489.85013844 225.81367864 493.92346472 225.92340539 498 226 C495.51189044 232.7193857 487.07797773 236.02606987 480.93408203 239 C449.59340139 253.33707872 411.16711639 252.79867677 379 241 C372.99230946 238.6810929 367.05371653 236.20019939 361.125 233.6875 C360.01862183 233.22266708 360.01862183 233.22266708 358.88989258 232.7484436 C344.12648599 226.50736594 330.84536943 218.87291867 318.1875 209 C317.28733154 208.30575928 316.38716309 207.61151855 315.4597168 206.89624023 C309.38345946 202.1740666 303.57920976 197.30280854 298 192 C296.25578167 190.38954879 294.5056775 188.78545095 292.75 187.1875 C291.98171875 186.47980469 291.2134375 185.77210938 290.421875 185.04296875 C287.7482144 182.78760667 284.94000584 180.89061069 282 179 C282.20157715 179.66418945 282.4031543 180.32837891 282.61083984 181.01269531 C283.53987168 184.0895463 284.45746445 187.16970209 285.375 190.25 C285.69210937 191.29414062 286.00921875 192.33828125 286.3359375 193.4140625 C293.56476354 217.81135037 292.08939801 237.69862829 280 260 C279.20161728 261.5090058 278.4034441 263.01812249 277.60546875 264.52734375 C269.99824183 278.73615782 260.99219455 291.20722689 250.43408203 303.34814453 C248.46593128 305.61517007 246.51648024 307.89798262 244.56567383 310.17993164 C241.54243018 313.7148238 238.50994266 317.24179445 235.47949219 320.77050781 C232.46678816 324.27919398 229.4581461 327.79130178 226.45263672 331.30615234 C225.04777664 332.94429003 223.63586575 334.57609618 222.22265625 336.20703125 C207.02170428 351.88066354 207.02170428 351.88066354 199.70605469 370.73046875 C200.25136369 374.94076152 201.92174349 378.6413498 203.625 382.5 C203.95628906 383.30308594 204.28757812 384.10617187 204.62890625 384.93359375 C208.27040992 393.41211362 212.46594717 400.06120638 221 404 C221.66 404 222.32 404 223 404 C223.17233154 403.30052246 223.34466309 402.60104492 223.5222168 401.88037109 C225.8632561 392.44047212 228.3546132 383.04315993 230.88085938 373.65136719 C231.23961161 372.31706489 231.59833564 370.98275502 231.95703125 369.6484375 C232.13332062 368.99327148 232.30960999 368.33810547 232.49124146 367.66308594 C233.55099585 363.71277182 234.57582437 359.75528676 235.57421875 355.7890625 C239.96932411 338.53767843 246.31625391 315.54558035 262 305 C278.88005428 296.93850652 300.34740536 297.41682701 317.71484375 303.18505859 C340.59205183 311.34361848 361.93860807 321.21538938 378.94921875 338.91015625 C380.9302861 340.92895821 382.97967975 342.7832241 385.125 344.625 C386.41739945 345.7491581 387.70909905 346.87412144 389 348 C389.57363281 348.49371094 390.14726563 348.98742187 390.73828125 349.49609375 C405.43313183 363.04238129 416.85139214 387.34687256 418.14086914 407.16503906 C419.11593871 431.35849451 413.39453146 451.03659878 398 470 C397.37480469 470.77730469 396.74960937 471.55460937 396.10546875 472.35546875 C376.56584361 495.47669524 347.09754548 507.49345608 317.54296875 510.33203125 C279.54305906 513.36716781 279.54305906 513.36716781 268 507 C267.109375 504.96875 267.109375 504.96875 266.75 502.5 C266.62109375 501.7059375 266.4921875 500.911875 266.359375 500.09375 C266.24078125 499.0728125 266.1221875 498.051875 266 497 C265.91459961 496.29480225 265.82919922 495.58960449 265.74121094 494.86303711 C264.08598834 480.10396896 264.0584664 464.75994204 266.25 450.0625 C266.35924805 449.28269775 266.46849609 448.50289551 266.58105469 447.69946289 C267.10706282 444.63971087 267.52620596 442.48393438 269.73388672 440.22900391 C272.7181159 438.61053701 274.03575151 439.00780467 277.3046875 439.80078125 C278.35205078 440.03676025 279.39941406 440.27273926 280.47851562 440.51586914 C282.15977539 440.91020142 282.15977539 440.91020142 283.875 441.3125 C304.46025038 445.67070302 327.10150603 446.84609219 346 436 C348.1977808 434.53118572 348.1977808 434.53118572 349.875 433 C350.42929687 432.525625 350.98359375 432.05125 351.5546875 431.5625 C353.2784337 429.69899059 354.19909178 428.42801649 355 426 C354.73898576 419.46622428 352.23835776 413.56049451 349.9375 407.5 C349.534104 406.43571777 349.13070801 405.37143555 348.71508789 404.27490234 C342.35485968 387.84171722 334.73348186 370.7307633 317.828125 363.0078125 C310.3375542 360.05100824 303.07900484 358.68642217 295.3125 361.1875 C279.07811697 370.0704643 271.89646295 394.78587593 266.89257812 411.3059082 C264.20610078 420.65384936 262.09358034 430.10502538 260.125 439.625 C259.97947693 440.32553497 259.83395386 441.02606995 259.684021 441.74783325 C256.36013753 457.92436722 254.64409341 473.64928334 254.68432617 490.16259766 C254.68748867 492.8653191 254.66390909 495.56694367 254.63867188 498.26953125 C254.54900681 522.78839429 258.50874066 546.38098083 275.8359375 564.8671875 C282.30465892 571.24249778 289.27148929 573.01407284 298.1796875 573.75390625 C300 574 300 574 301 575 C301.14209473 577.9439113 301.14516981 579.36191249 300 582 C297.18331575 584.73643017 293.97757884 586.59064421 290.5625 588.5 C289.61761719 589.02956299 288.67273438 589.55912598 287.69921875 590.10473633 C278.62283162 594.80337876 270.83462356 595.84476577 261 593 C241.96417497 586.11024595 227.4692665 568.78715689 219 551 C212.85283732 536.97029273 208.77267926 522.35992706 208 507 C207.92072266 505.453125 207.92072266 505.453125 207.83984375 503.875 C207.57278307 493.65702632 208.50092138 482.57475719 212.1640625 472.9375 C213.23900927 469.16011695 213.02920376 466.78523056 212 463 C209.88875456 460.30497124 209.88875456 460.30497124 207.0625 458.0625 C206.06347656 457.20785156 205.06445312 456.35320312 204.03515625 455.47265625 C200.55914721 452.64084965 197.06450772 449.83639892 193.5390625 447.06640625 C189.75278797 443.98496129 186.18206809 440.68327178 182.59765625 437.37109375 C180.38085545 435.34763798 178.11922147 433.41850612 175.8125 431.5 C163.79912859 420.93019053 154.09280085 404.96356645 152.82861328 388.81005859 C152.26075156 378.90986437 152.3500229 369.98070204 157 361 C157.46277344 360.05253906 157.92554688 359.10507812 158.40234375 358.12890625 C167.86238441 340.34217943 184.63194417 328.21540579 200.33642578 316.26806641 C237.45176607 289.04787058 237.45176607 289.04787058 255.62109375 248.484375 C258.76041348 219.61557909 253.4227693 194.96695544 235.27734375 171.765625 C231.65706855 167.36913299 227.91509031 163.13584167 224 159 C223.19175781 158.12730469 222.38351562 157.25460937 221.55078125 156.35546875 C204.24107045 138.26953773 181.8486623 125.78462472 160 114 C158.9776123 113.44441406 157.95522461 112.88882813 156.90185547 112.31640625 C143.86199962 105.23180515 130.76147298 98.28655541 117.5 91.625 C116.40236328 91.07158936 115.30472656 90.51817871 114.17382812 89.94799805 C113.15740234 89.44179932 112.14097656 88.93560059 111.09375 88.4140625 C110.20365234 87.9701416 109.31355469 87.5262207 108.39648438 87.06884766 C106.25588912 86.11412822 104.28826394 85.4750606 102 85 C102.35146845 88.63184069 104.02992787 90.2503268 106.74365234 92.55126953 C107.55116943 93.20651611 107.55116943 93.20651611 108.375 93.875 C109.22698975 94.57858643 109.22698975 94.57858643 110.09619141 95.29638672 C122.71911534 105.58284793 135.81933872 114.99495101 150 123 C212.11400719 158.10963615 212.11400719 158.10963615 230 181 C230.58007812 181.71929688 231.16015625 182.43859375 231.7578125 183.1796875 C244.16241721 199.55806168 249.12643732 221.99859694 246.50390625 242.1953125 C243.49102451 262.39840878 234.40280686 275.92870243 218.26269531 288.33544922 C209.95832995 294.45815927 201.15057073 299.75651285 192.3125 305.0625 C174.37190805 315.85664421 161.97572512 327.13903991 151 345 C150.34 344.67 149.68 344.34 149 344 C149.50388061 338.37644357 150.59737323 333.6670419 152.9375 328.5 C153.2461499 327.81131836 153.5547998 327.12263672 153.87280273 326.41308594 C159.21735408 314.87105951 166.54229576 304.59186587 173.875 294.25 C180.80187327 284.47204409 187.07646437 274.41379268 193 264 C193.47518066 263.17016602 193.95036133 262.34033203 194.43994141 261.48535156 C202.2692043 247.68543638 208.05448899 235.26309004 205 219 C200.56005884 203.83718206 189.79544267 196.41103823 176.47265625 188.99609375 C173.77380414 187.90887845 171.87756842 187.92362028 169 188 C168.93530518 188.59723877 168.87061035 189.19447754 168.80395508 189.80981445 C165.44596775 219.95675821 155.93313916 245.70242 143 273 C142.28602051 274.51255371 142.28602051 274.51255371 141.55761719 276.05566406 C135.88300161 288.0550715 130.03306922 299.95784381 124.0625 311.8125 C105.71863864 348.33591916 87.77405756 385.40360489 83.32350349 426.49280357 C83.08981228 428.64650903 82.84658123 430.79896907 82.60118103 432.95137024 C81.9934339 438.29619189 81.39881161 443.6424467 80.80828857 448.98919678 C76.87662979 484.5843952 76.87662979 484.5843952 73 500 C72.74259033 501.03342529 72.48518066 502.06685059 72.2199707 503.1315918 C66.65549728 524.32313626 56.62056675 541.09711516 37.859375 553.15234375 C36 554 36 554 32 554 C31 551 31 551 32.546875 547.62890625 C33.27634268 546.27079025 34.01103987 544.91547454 34.75 543.5625 C48.1344367 517.76531018 44.98043136 485.28061468 43 457.0625 C39.76463358 410.5929464 47.53438554 372.08963856 65.89453125 329.26171875 C86.87393971 280.31883295 103.70069406 236.6840516 83.56762695 184.11767578 C74.93330887 162.62345266 62.54362949 143.11801267 49.09375 124.359375 C24.36703747 89.74833394 -0.83510027 52.42978463 -1.125 8.4375 C-1.12983398 7.72134521 -1.13466797 7.00519043 -1.13964844 6.26733398 C-1.12224749 1.12224749 -1.12224749 1.12224749 0 0 Z " fill="#FCFBFC" transform="translate(552,481)"/>
<path d="M0 0 C1.71999124 1.3729314 3.37025815 2.79220808 5.00561523 4.26464844 C5.58738525 4.77793701 6.16915527 5.29122559 6.76855469 5.82006836 C8.52990392 7.38948031 10.271045 8.97822349 12.00561523 10.57714844 C12.54879395 11.07504883 13.09197266 11.57294922 13.65161133 12.0859375 C25.3038425 22.8799612 25.3038425 22.8799612 26.36889648 31.52636719 C26.35213867 32.43 26.33538086 33.33363281 26.31811523 34.26464844 C26.31424805 35.17601562 26.31038086 36.08738281 26.30639648 37.02636719 C26.00561523 39.57714844 26.00561523 39.57714844 24.99389648 41.54980469 C23.68345418 44.23802428 23.80985812 46.35534947 23.88061523 49.32714844 C23.89866211 50.31199219 23.91670898 51.29683594 23.93530273 52.31152344 C23.97010742 53.43300781 23.97010742 53.43300781 24.00561523 54.57714844 C29.81930315 55.49509916 33.00231687 52.92072548 37.54077148 49.69433594 C40.00561523 48.57714844 40.00561523 48.57714844 42.75170898 49.27246094 C45.00561523 50.57714844 45.00561523 50.57714844 46.00561523 52.57714844 C46.07763453 53.91130594 46.08947586 55.24903176 46.06811523 56.58496094 C46.05941406 57.39860107 46.05071289 58.21224121 46.04174805 59.05053711 C46.02982422 59.92556885 46.01790039 60.80060059 46.00561523 61.70214844 C45.81296245 103.15584169 61.69660224 132.28431374 85.94311523 164.95214844 C103.61601274 188.7960344 118.71840458 211.62085865 114.50952148 242.71777344 C111.20548837 263.3772753 111.20548837 263.3772753 105.00561523 269.57714844 C96.83048967 269.61798323 91.42930822 266.43571031 84.56811523 262.26464844 C71.91428973 254.4405342 71.91428973 254.4405342 57.69311523 250.63964844 C56.91323242 250.548125 56.13334961 250.45660156 55.32983398 250.36230469 C52.15992297 250.65532167 50.50500565 251.61839155 48.00561523 253.57714844 C46.59105759 256.0903615 46.59105759 256.0903615 45.75561523 258.95214844 C45.44108398 259.88800781 45.12655273 260.82386719 44.80249023 261.78808594 C41.21575555 274.34165733 43.37095905 285.88974691 46.43676758 298.25439453 C47.00174492 300.56134492 47.53422454 302.87344577 48.05639648 305.19042969 C49.7001286 312.44945931 51.4580674 319.57139189 54.00561523 326.57714844 C36.14598715 327.56782118 19.73580092 322.7369645 5.83764648 311.21777344 C0.0508707 306.03558617 -3.51506191 299.94110069 -4.21459961 292.11279297 C-4.35362945 289.28551825 -4.41365387 286.47023419 -4.43188477 283.63964844 C-4.441875 282.70314453 -4.45186523 281.76664062 -4.4621582 280.80175781 C-4.45087891 279.91423828 -4.43959961 279.02671875 -4.42797852 278.11230469 C-4.41822998 277.31187744 -4.40848145 276.5114502 -4.3984375 275.68676758 C-3.89310196 273.0483359 -3.12723302 272.17609145 -0.99438477 270.57714844 C1.5739122 269.97980296 4.0317934 269.51959315 6.63061523 269.13964844 C18.64600591 267.11717622 30.06949899 262.28388341 37.78686523 252.40136719 C42.69038437 245.06180488 42.90676846 237.23218055 42.00561523 228.57714844 C40.45611471 223.03073117 37.716363 218.95052973 34.00561523 214.57714844 C34.00561523 213.91714844 34.00561523 213.25714844 34.00561523 212.57714844 C33.20124023 212.23683594 33.20124023 212.23683594 32.38061523 211.88964844 C30.25536302 210.71516695 28.70314722 209.52899596 26.88061523 207.95214844 C24.37014606 205.36485462 24.37014606 205.36485462 22.00561523 205.57714844 C21.96823242 206.53492188 21.93084961 207.49269531 21.89233398 208.47949219 C21.54866028 215.92040556 20.929668 223.28078049 19.75561523 230.63964844 C19.65853271 231.32857178 19.5614502 232.01749512 19.46142578 232.72729492 C18.30455162 239.43944784 15.23543852 244.1607932 9.77124023 248.12402344 C8.6106541 248.87611218 7.43830178 249.61031498 6.25561523 250.32714844 C5.63291748 250.71056396 5.01021973 251.09397949 4.36865234 251.48901367 C-6.14600071 257.80653249 -16.01008664 259.29616577 -28.24047852 256.95605469 C-41.66007187 253.02964571 -51.47365954 243.88573278 -58.12329102 231.80371094 C-66.0907959 216.70020373 -70.00091943 202.02036746 -70.55297852 184.95996094 C-71.03902578 181.23503234 -71.65176244 179.49446813 -73.99438477 176.57714844 C-76.18215552 174.92052937 -78.30058703 173.45738943 -80.61938477 172.01464844 C-81.97508896 171.14333819 -83.32919471 170.26953701 -84.68188477 169.39355469 C-85.38829102 168.9373877 -86.09469727 168.4812207 -86.82250977 168.01123047 C-90.49072647 165.58911886 -94.0476844 163.01342558 -97.61938477 160.45214844 C-115.06968338 147.33849361 -115.06968338 147.33849361 -135.99438477 144.57714844 C-150.89460712 148.12618197 -171.00749609 155.12491913 -180.52563477 167.58105469 C-185.11501569 175.95667487 -183.84082132 182.87114791 -181.77172852 191.79589844 C-178.06130602 209.84458676 -180.98870331 226.72243718 -190.04125977 242.67871094 C-200.94404547 258.85844492 -217.0589629 269.98991253 -236.22094727 274.08886719 C-237.59379883 274.33056641 -237.59379883 274.33056641 -238.99438477 274.57714844 C-239.78586914 274.72796875 -240.57735352 274.87878906 -241.39282227 275.03417969 C-246.52845205 275.56576242 -249.23065644 274.06436364 -253.30688477 270.95214844 C-259.14578513 265.8102951 -263.27011411 260.59257764 -264.23413086 252.5859375 C-265.65668025 229.26458871 -255.89823929 210.10557843 -245.53637695 189.79174805 C-234.52806988 168.18123516 -226.60398387 145.83280452 -219.98266602 122.53417969 C-198.19733166 45.88060528 -198.19733166 45.88060528 -179.20532227 25.92871094 C-176.89893232 23.53561904 -176.89893232 23.53561904 -174.61547852 20.62402344 C-166.0648847 10.28522025 -151.81033626 0.33898588 -138.49047852 -2.05175781 C-133.85827902 -2.2279519 -130.95067422 -1.98881879 -126.93188477 0.38964844 C-126.29250977 1.11152344 -125.65313477 1.83339844 -124.99438477 2.57714844 C-123.51548408 4.30740946 -123.51548408 4.30740946 -121.99438477 5.57714844 C-120.67438477 5.57714844 -119.35438477 5.57714844 -117.99438477 5.57714844 C-117.78813477 4.91714844 -117.58188477 4.25714844 -117.36938477 3.57714844 C-112.85941066 -6.26279507 -104.46634931 -14.41293011 -94.52563477 -18.63378906 C-64.38703809 -28.02884543 -25.22204804 -17.99413587 0 0 Z M-96.99438477 140.57714844 C-96.88664237 142.51224929 -96.88664237 142.51224929 -95.99438477 144.57714844 C-93.78749326 146.01669779 -93.78749326 146.01669779 -90.86938477 147.13964844 C-89.68860352 147.65140625 -88.50782227 148.16316406 -87.29125977 148.69042969 C-86.61514648 148.98256348 -85.9390332 149.27469727 -85.24243164 149.57568359 C-81.79726068 151.11044589 -78.41465084 152.76985976 -75.02270508 154.41821289 C-45.23741889 168.87254241 -12.20799926 184.3586532 22.00561523 180.57714844 C23.9116302 179.19704002 23.9116302 179.19704002 25.00561523 177.57714844 C17.73829953 160.383743 5.20585824 151.73388763 -11.4831543 144.73461914 C-34.47213543 135.50874537 -74.31813998 127.20397844 -96.99438477 140.57714844 Z " fill="#FCFCFC" transform="translate(662.994384765625,169.4228515625)"/>
<path d="M0 0 C0.7317041 0.27376465 1.4634082 0.5475293 2.21728516 0.82958984 C26.36098261 10.15060298 42.76817265 25.42261078 55 48 C55.61875 49.13566406 56.2375 50.27132812 56.875 51.44140625 C75.30223982 88.2498178 72.25626149 137.55449858 65.91796875 176.9296875 C63.72047329 190.75066616 62.98384767 209.68807831 70.625 222.0625 C81.01077034 235.22791691 96.17720063 243.30074756 112 248 C112.73992187 248.23332031 113.47984375 248.46664062 114.2421875 248.70703125 C139.91203763 255.64887788 169.82574513 248.52449431 193 237 C194.12921875 236.443125 195.2584375 235.88625 196.421875 235.3125 C204.40609679 231.18668204 211.7721574 226.31477833 219 221 C219.82105225 220.40541992 219.82105225 220.40541992 220.65869141 219.79882812 C237.04901946 207.84206707 253.58225229 192.9751216 261.796875 174.09375 C263.20863323 171.63692398 264.59525265 170.47342901 267 169 C271.68704824 168.34599327 275.16024088 169.70188468 279.48046875 171.26953125 C283.21967645 172.35361162 286.93915544 172.5631174 290.8125 172.7890625 C293 173 293 173 294 174 C293.23711318 205.76419793 276.78769359 234.37431902 254.421875 255.88671875 C243.46749835 266.06187321 231.28803966 274.2265302 218 281 C217.3409668 281.34369629 216.68193359 281.68739258 216.00292969 282.04150391 C197.14433722 291.80052784 176.79253525 297.13385053 156 301 C155.2977832 301.13277344 154.59556641 301.26554687 153.87207031 301.40234375 C117.64543262 307.93892916 72.98681585 301.62874059 42 281 C38.53649383 278.47355604 35.24949783 275.79498608 32 273 C30.76636719 271.95005859 30.76636719 271.95005859 29.5078125 270.87890625 C8.77778249 252.76434732 -4.39440951 229.37733245 -8 202 C-8.11085937 201.16855469 -8.22171875 200.33710938 -8.3359375 199.48046875 C-11.03755961 175.12936138 -6.60294343 150.83490483 -2.71411133 126.84936523 C1.15638318 102.91487703 2.53248663 79.91342471 -11.3125 58.5625 C-15.74669981 52.6183787 -20.33724247 49.15045997 -27.75 48 C-38.43805429 47.47623624 -47.77247929 51.34853034 -56 58 C-71.9477834 74.28566017 -77.67931761 103.04047952 -81.40820312 124.63085938 C-90.90405031 178.69137551 -90.90405031 178.69137551 -111.375 193.53515625 C-125.20877989 203.02328682 -139.78318703 207.33733268 -156.5 207.4375 C-157.46808594 207.47037109 -158.43617188 207.50324219 -159.43359375 207.53710938 C-167.34069804 207.59548397 -173.80883778 205.60127884 -179.88208008 200.3828125 C-187.49442796 192.69452787 -188.96628792 181.37878517 -189.125 171.0625 C-188.96302817 157.96302817 -188.96302817 157.96302817 -186 155 C-185.67128906 155.70125 -185.34257812 156.4025 -185.00390625 157.125 C-180.86142623 165.38750757 -175.75503676 172.20689305 -167.0625 176 C-159.69401508 178.23686149 -153.12743977 177.57436615 -146.203125 174.36328125 C-140.14484977 170.61445491 -136.91153875 166.96049443 -133.875 160.625 C-133.55402344 160.01011719 -133.23304688 159.39523437 -132.90234375 158.76171875 C-125.50132031 143.75161098 -124.10443297 126.16700056 -121.65087891 109.84619141 C-116.95144314 78.79514047 -110.14947954 40.96662088 -88 17 C-87.32582031 16.2471875 -86.65164062 15.494375 -85.95703125 14.71875 C-65.64448238 -6.85209835 -27.16859166 -10.29206947 0 0 Z " fill="#FBFBFB" transform="translate(211,280)"/>
<path d="M0 0 C1.99890113 -0.00965536 3.99766054 -0.04083679 5.99633789 -0.07226562 C17.03018455 -0.11633491 26.24575642 1.69418418 36.02172852 6.80273438 C36.69179932 7.14860596 37.36187012 7.49447754 38.05224609 7.85083008 C40.15949709 8.95787988 42.24928427 10.09176462 44.33422852 11.24023438 C45.01743164 11.61567383 45.70063477 11.99111328 46.40454102 12.37792969 C63.56125469 21.99188664 74.55745932 35.09869484 85.77856445 51.03515625 C87.14766396 52.9757882 88.53599689 54.89983745 89.93579102 56.81835938 C104.25592947 76.79765908 112.53047716 98.43675628 116.83081055 122.54443359 C117.15046752 124.25619514 117.50207997 125.96253521 117.89624023 127.65869141 C123.76423721 153.15647309 118.83457587 178.04691091 105.61157227 200.11523438 C93.71938578 218.10814064 76.62067618 227.04163535 56.02172852 231.49023438 C6.13182034 239.96220951 -41.74167552 222.6515892 -82.81030273 195.45068359 C-85.37196578 193.77953552 -87.99017873 192.20437646 -90.60327148 190.61523438 C-96.18454456 187.07197162 -100.90679355 182.80757562 -105.66577148 178.24023438 C-106.66350586 177.31984375 -106.66350586 177.31984375 -107.68139648 176.38085938 C-112.48238862 171.81406198 -116.48459801 166.76098104 -120.52001953 161.52807617 C-124.64993174 156.19035269 -129.0990442 151.20785757 -133.66577148 146.24023438 C-134.83711813 144.91101057 -136.00401741 143.5778503 -137.16577148 142.24023438 C-156.23630534 120.41409586 -175.20973204 101.58520391 -203.54077148 93.11523438 C-204.32307129 92.87345459 -205.10537109 92.6316748 -205.91137695 92.38256836 C-228.44524336 85.95030198 -252.72480326 85.92872249 -275.97607422 84.51342773 C-339.86748536 80.60154309 -339.86748536 80.60154309 -359.66577148 59.24023438 C-367.30217395 49.71889713 -369.66453361 37.24807897 -368.66577148 25.24023438 C-368.16577148 22.11523438 -368.16577148 22.11523438 -367.66577148 20.24023438 C-365.84545898 20.29101562 -365.84545898 20.29101562 -363.66577148 21.24023438 C-362.50066347 23.66500106 -361.62297726 25.88991584 -360.79077148 28.42773438 C-360.27483087 29.88687894 -359.75655197 31.34519856 -359.23608398 32.80273438 C-358.97601562 33.54265625 -358.71594727 34.28257812 -358.44799805 35.04492188 C-354.53140478 47.47781919 -354.53140478 47.47781919 -345.66577148 56.24023438 C-343.33982859 56.62173824 -341.00621319 56.96114983 -338.66577148 57.24023438 C-337.89692988 48.79480506 -337.65291068 40.87368008 -338.40405273 32.41601562 C-338.82480727 26.78250012 -338.7845289 21.13644803 -338.79077148 15.49023438 C-338.79520264 14.41717041 -338.79963379 13.34410645 -338.80419922 12.23852539 C-338.80234619 11.23362061 -338.80049316 10.22871582 -338.79858398 9.19335938 C-338.79745605 8.2874707 -338.79632812 7.38158203 -338.79516602 6.44824219 C-338.66577148 4.24023438 -338.66577148 4.24023438 -337.66577148 2.24023438 C-335.30395508 2.48266602 -335.30395508 2.48266602 -332.66577148 3.24023438 C-331.38305664 5.03100586 -331.38305664 5.03100586 -330.45483398 7.36132812 C-330.10090576 8.20985352 -329.74697754 9.05837891 -329.38232422 9.93261719 C-328.84200562 11.2914502 -328.84200562 11.2914502 -328.29077148 12.67773438 C-321.68917346 28.24735995 -312.96084791 40.24784696 -297.66577148 48.24023438 C-274.39052915 57.63000206 -253.88938353 52.3784808 -231.40332031 43.41430664 C-220.51503116 39.15390757 -210.33641619 37.64949804 -198.66577148 38.24023438 C-197.80725586 38.26214844 -196.94874023 38.2840625 -196.06420898 38.30664062 C-176.8705077 40.17847217 -157.89555387 58.50718975 -144.66577148 71.24023438 C-144.12243164 71.76166016 -143.5790918 72.28308594 -143.01928711 72.8203125 C-135.68576615 79.89831008 -128.92796668 87.18167229 -122.66577148 95.24023438 C-121.56179051 96.650536 -120.45760795 98.06067985 -119.35327148 99.47070312 C-110.19767625 111.18961555 -110.19767625 111.18961555 -105.93139648 116.86523438 C-92.78924681 134.32118014 -77.06313317 150.96883309 -59.66577148 164.24023438 C-58.75053711 164.98402344 -57.83530273 165.7278125 -56.89233398 166.49414062 C-39.85163737 179.99420992 -20.53275171 187.1710589 1.33422852 185.24023438 C17.28170242 183.01457769 31.04848641 174.20678701 41.02172852 161.74023438 C49.43091364 149.94925847 56.98031762 134.94255835 56.70922852 120.24023438 C56.69835205 119.42208252 56.68747559 118.60393066 56.67626953 117.76098633 C56.27397617 102.01385776 53.41483639 85.65485991 42.11157227 73.75195312 C28.97992223 62.5828354 10.38754777 55.12349362 -6.91186523 55.80273438 C-11.42710094 56.52004842 -12.83985348 57.59628748 -15.66577148 61.24023438 C-22.06326068 74.1938282 -22.77212052 92.55240426 -18.66577148 106.24023438 C-15.43713979 113.50465569 -10.21379811 118.33481267 -3.29077148 122.05273438 C2.32818452 123.94415461 8.4384317 123.81321439 14.31079102 124.02929688 C17.71412126 124.1662032 20.98481616 124.59571023 24.33422852 125.24023438 C23.80678494 129.13365053 22.91273337 131.18932112 20.23657227 134.05273438 C19.59913086 134.7359375 18.96168945 135.41914062 18.30493164 136.12304688 C17.63397461 136.82171875 16.96301758 137.52039063 16.27172852 138.24023438 C15.6278418 138.93890625 14.98395508 139.63757813 14.32055664 140.35742188 C8.24521101 146.77802643 1.44550555 152.36738935 -7.66577148 153.24023438 C-20.42340644 153.51864233 -29.1173345 149.58103899 -38.29858398 140.85742188 C-42.57347224 136.13106027 -45.62581552 130.80753166 -48.66577148 125.24023438 C-49.07891602 124.49854004 -49.49206055 123.7568457 -49.91772461 122.99267578 C-62.89983134 99.60480824 -68.21432355 73.83254697 -62.16577148 47.24023438 C-56.81346315 30.30679895 -48.07270507 15.81082489 -32.43530273 6.63867188 C-21.69715411 1.21658837 -11.91311212 0.0347026 0 0 Z " fill="#FCFBFC" transform="translate(981.665771484375,459.759765625)"/>
<path d="M0 0 C16.08020859 10.62701763 16.08020859 10.62701763 18.75 18.75 C16.23674093 20.00662954 14.00856654 19.90516904 11.24072266 19.98901367 C-8.30754347 20.63011501 -24.76995208 27.59847758 -38.3203125 41.94140625 C-47.45055533 52.98860483 -50.3110237 64.63838476 -49.25 78.75 C-47.53030227 86.82014776 -43.55341385 92.58594443 -38.25 98.75 C-37.61707031 99.57371094 -36.98414063 100.39742188 -36.33203125 101.24609375 C-25.18626091 114.65029411 -7.86252524 123.06929301 7.27359009 131.02792358 C22.27344958 138.9318425 36.898303 147.60704923 49.75 158.75 C50.50023437 159.35714844 51.25046875 159.96429688 52.0234375 160.58984375 C71.04324671 176.46132277 82.79713682 204.41877536 85.75 228.75 C89.70187807 277.95342608 67.89059021 320.86979987 39 359.25 C37.92492187 360.68859375 37.92492187 360.68859375 36.828125 362.15625 C31.79887556 368.43335832 31.79887556 368.43335832 27.4375 369.75 C20.9864388 369.75 17.3149208 366.46037427 12.875 362.1875 C9.07188102 358.23866765 5.6652952 354.0105949 2.23046875 349.7421875 C-1.91729996 344.73873737 -6.33594635 339.9988789 -10.80517578 335.28271484 C-12.13260997 333.87453102 -13.44036461 332.44786406 -14.74609375 331.01953125 C-23.8795412 321.34617558 -34.63434352 315.09269653 -46.80078125 309.94140625 C-49.25 308.75 -49.25 308.75 -50.25 306.75 C-48.43628906 306.02296875 -48.43628906 306.02296875 -46.5859375 305.28125 C-24.8569166 296.44568771 -5.29337314 286.19079417 4.5625 263.6875 C11.26850644 246.44976541 12.29710972 225.03790284 5.6875 207.625 C-3.66528577 187.11976705 -23.21516681 175.04143522 -40.9140625 162.421875 C-67.70140795 143.29380703 -97.54491555 121.87922396 -103.5 87.25 C-106.57137529 63.6751194 -99.96226837 40.31685043 -86.30859375 21.00390625 C-64.82064044 -6.82190804 -31.43538254 -19.72823697 0 0 Z " fill="#FBFAFB" transform="translate(850.25,185.25)"/>
<path d="M0 0 C1.10794922 0.76957031 1.10794922 0.76957031 2.23828125 1.5546875 C3.02847656 2.08835938 3.81867188 2.62203125 4.6328125 3.171875 C26.21920554 18.70835026 34.82140242 53.54047961 39.23828125 78.5546875 C39.3892627 79.37324219 39.54024414 80.19179687 39.69580078 81.03515625 C41.79917802 92.7432755 42.54119321 104.35931103 42.61328125 116.2421875 C42.62713867 117.47549805 42.64099609 118.70880859 42.65527344 119.97949219 C42.56185792 138.66751144 38.03921049 155.80525153 32.55078125 173.5546875 C31.9167866 175.64046081 31.28414864 177.72664697 30.65283203 179.81323242 C29.12870614 184.84368757 27.59287234 189.8704561 26.0524292 194.89593506 C9.51037434 247.06802469 9.51037434 247.06802469 21.03320312 299.00219727 C25.66143075 307.4338514 30.64708955 315.51077636 40.23828125 318.5546875 C43.80977566 319.39012927 47.09322952 319.67281628 50.7578125 319.65234375 C52.29018555 319.64750977 52.29018555 319.64750977 53.85351562 319.64257812 C54.90861328 319.63419922 55.96371094 319.62582031 57.05078125 319.6171875 C58.66243164 319.61041992 58.66243164 319.61041992 60.30664062 319.60351562 C62.95057808 319.59176479 65.59440077 319.57533537 68.23828125 319.5546875 C68.56828125 320.5446875 68.89828125 321.5346875 69.23828125 322.5546875 C58.13661554 340.8641511 33.12193867 350.84498014 14.65161133 359.36889648 C12.07182975 360.57110071 12.07182975 360.57110071 9.23828125 362.5546875 C-1.1721166 361.9858133 -10.80463693 351.68063053 -17.76171875 344.5546875 C-39.41813067 319.2888736 -39.3247921 287.56919061 -37.55957031 255.93164062 C-34.75259324 220.15062725 -25.11012108 184.82822597 -14.61917114 150.63238525 C-10.33274665 136.64457897 -6.92907708 123.20035824 -5.76171875 108.5546875 C-5.63667969 107.46671875 -5.51164062 106.37875 -5.3828125 105.2578125 C-2.31653433 75.91469478 -6.54624478 53.91391313 -21.88671875 28.9921875 C-22.28197754 28.34958984 -22.67723633 27.70699219 -23.08447266 27.04492188 C-28.07702835 18.72517649 -28.07702835 18.72517649 -35.76171875 13.5546875 C-46.79843943 11.97801312 -56.88946479 15.11250559 -67.4296875 18.06445312 C-68.56148438 18.38091797 -69.69328125 18.69738281 -70.859375 19.0234375 C-71.87523682 19.31669922 -72.89109863 19.60996094 -73.93774414 19.91210938 C-76.6957157 20.53966891 -78.94866659 20.82987408 -81.76171875 20.5546875 C-82.42171875 19.8946875 -83.08171875 19.2346875 -83.76171875 18.5546875 C-83.15604828 9.35365099 -76.4152994 1.46545212 -69.9375 -4.66015625 C-49.55615216 -21.38237521 -20.58031798 -13.35126511 0 0 Z " fill="#FBFAFB" transform="translate(366.76171875,155.4453125)"/>
<path d="M0 0 C5.8942143 4.70445623 10.51729028 11.00767265 11.859375 18.55859375 C12.74981354 33.11383906 10.50218959 43.48073591 1.0078125 54.7578125 C-5.33538903 61.59381256 -11.07054584 64.63236449 -20.38134766 65.02709961 C-31.21870539 65.17817149 -38.28609478 62.91649116 -46.296875 55.3984375 C-46.9053125 54.79128906 -47.51375 54.18414062 -48.140625 53.55859375 C-48.6871875 53.02363281 -49.23375 52.48867188 -49.796875 51.9375 C-56.9839607 44.29205424 -60.53750341 34.3602013 -60.34765625 23.953125 C-59.64963748 15.87981353 -56.23554218 9.84011247 -50.140625 4.55859375 C-36.80440453 -4.72425577 -14.42820143 -9.71534002 0 0 Z " fill="#FDFDFD" transform="translate(558.140625,357.44140625)"/>
<path d="M0 0 C7.20911373 2.63409925 12.03419665 8.32677504 15.73046875 14.89453125 C24.25 33.35716581 24.25 33.35716581 24.25 42.1875 C20.72846341 43.34723681 17.90706841 43.04257392 14.25 42.625 C6.26902462 41.9543298 -1.34891686 42.78232244 -9.28125 43.71484375 C-12.7952134 44.1084724 -16.21121782 44.4550931 -19.75 44.1875 C-20.41 43.5275 -21.07 42.8675 -21.75 42.1875 C-21.75 34.18943417 -18.09519244 27.29756402 -14.75 20.1875 C-14.2547583 19.13127441 -14.2547583 19.13127441 -13.74951172 18.05371094 C-12.72222357 15.88278298 -11.67785356 13.72113422 -10.625 11.5625 C-10.30072021 10.88767578 -9.97644043 10.21285156 -9.64233398 9.51757812 C-5.07150714 0.34578458 -5.07150714 0.34578458 0 0 Z " fill="#FDFDFD" transform="translate(581.75,411.8125)"/>
</svg>
