<?xml version="1.0" encoding="UTF-8"?>
<svg version="1.1" xmlns="http://www.w3.org/2000/svg" width="256" height="256">
<path d="M0 0 C0.99 0.33 1.98 0.66 3 1 C3.33 12.55 3.66 24.1 4 36 C9.94 37.485 9.94 37.485 16 39 C17.32 39.66 18.64 40.32 20 41 C20.63183594 42.91479492 20.63183594 42.91479492 21 45 C22.3845366 47.46298762 23.80147122 49.8880988 25.25 52.3125 C29.69065129 59.97655929 32.6493853 67.45679951 35 76 C35.24492187 76.85722656 35.48984375 77.71445313 35.7421875 78.59765625 C37.6110364 86.26505686 37.17497079 94.16519704 37 102 C36.56429687 101.59007813 36.12859375 101.18015625 35.6796875 100.7578125 C35.08414063 100.21898438 34.48859375 99.68015625 33.875 99.125 C33.29492188 98.59132813 32.71484375 98.05765625 32.1171875 97.5078125 C26.94078894 93.82129987 21.71927246 93.73173501 15.625 93.875 C14.88894531 93.88402344 14.15289062 93.89304687 13.39453125 93.90234375 C11.5962112 93.92569856 9.79806089 93.96156164 8 94 C8.59024148 95.65087847 9.19766006 97.29562407 9.8125 98.9375 C10.14894531 99.85402344 10.48539063 100.77054687 10.83203125 101.71484375 C11.83409094 104.3340424 11.83409094 104.3340424 15 105 C15 103.35 15 101.7 15 100 C17.15976596 101.00274848 18.85059268 101.85358083 20.5625 103.53125 C24.28332878 105.77328785 27.98040579 105.57075328 32.25 105.6875 C33.09046875 105.72166016 33.9309375 105.75582031 34.796875 105.79101562 C36.86412204 105.87323568 38.93203874 105.93830157 41 106 C41 106.66 41 107.32 41 108 C36.38 108 31.76 108 27 108 C30.21911316 113.22392794 34.08359853 117.50742185 38.3125 121.9375 C39.2705957 122.95360352 39.2705957 122.95360352 40.24804688 123.99023438 C43.37838329 127.29817853 46.5458965 130.5602464 49.77734375 133.76953125 C52.04160449 136.02039589 54.20243575 138.29742304 56.25 140.75 C59.18279585 144.15838437 62.30072128 147.34399864 65.5 150.5 C69.26085145 154.21011483 72.82607345 158.01546742 76.25390625 162.03515625 C78.97784925 165.10035386 81.92527861 167.93400767 84.84375 170.8125 C87.73485869 173.74550881 90.37085709 176.83154573 93 180 C93.74765625 179.7834375 94.4953125 179.566875 95.265625 179.34375 C96.25046875 179.0653125 97.2353125 178.786875 98.25 178.5 C99.22453125 178.2215625 100.1990625 177.943125 101.203125 177.65625 C104 177 104 177 108 177 C107.67 177.99 107.34 178.98 107 180 C104.39663858 181.28358734 101.86441189 182.3824242 99.16796875 183.43359375 C98.37981277 183.75280289 97.5916568 184.07201202 96.77961731 184.40089417 C94.25301788 185.42367875 91.72106146 186.4320956 89.1875 187.4375 C85.86364553 188.75784848 82.54569915 190.09176251 79.23046875 191.43359375 C78.46679489 191.73164413 77.70312103 192.02969452 76.91630554 192.33677673 C64.27826313 197.45259526 56.03523528 212.65035014 48.9375 223.75 C42.9924201 232.64383954 35.37156968 238.97821812 24.72715759 241.54890442 C17.31796503 242.99576326 10.15020829 243.32076823 2.61328125 243.3359375 C1.33727554 243.34413513 0.06126984 243.35233276 -1.25340271 243.36077881 C-4.68828682 243.37936165 -8.12297366 243.38156238 -11.55789948 243.37735748 C-13.69719569 243.37498927 -15.83647226 243.37606668 -17.97576904 243.37738037 C-43.34750114 243.37404153 -68.51731613 242.14331742 -93.73840332 239.24230957 C-95.92155603 239.00840456 -98.10262477 238.83103223 -100.29199219 238.66699219 C-103.67498036 238.3465713 -106.75670242 238.01001069 -110 237 C-112.22265625 233.921875 -112.22265625 233.921875 -113 230 C-113.40518368 228.56479502 -113.82091789 227.13253489 -114.24609375 225.703125 C-114.85314258 223.46080131 -115.44600763 221.21648511 -116.01757812 218.96484375 C-116.21673828 218.23910156 -116.41589844 217.51335937 -116.62109375 216.765625 C-116.7905249 216.11368164 -116.95995605 215.46173828 -117.13452148 214.79003906 C-117.90218518 212.8269094 -117.90218518 212.8269094 -119.98193359 211.63012695 C-122.73817165 209.40372948 -122.93653 207.58597657 -123.66796875 204.15234375 C-123.92126953 202.98896484 -124.17457031 201.82558594 -124.43554688 200.62695312 C-124.68369141 199.40943359 -124.93183594 198.19191406 -125.1875 196.9375 C-125.44724609 195.74705078 -125.70699219 194.55660156 -125.97460938 193.33007812 C-127.41290105 186.5697356 -128.51299814 179.8963828 -129 173 C-127.5625 173.14583333 -126.125 173.29166667 -124.6875 173.4375 C-123.48673828 173.55931641 -123.48673828 173.55931641 -122.26171875 173.68359375 C-120 174 -120 174 -117 175 C-117.06058594 174.40574219 -117.12117188 173.81148437 -117.18359375 173.19921875 C-117.45983621 170.46654334 -117.72995488 167.73329451 -118 165 C-118.09539062 164.06542969 -118.19078125 163.13085938 -118.2890625 162.16796875 C-118.81980465 156.74681677 -119.1027694 151.44677829 -119 146 C-130.87575533 145.55527685 -137.00445147 146.25964429 -146 154 C-146.66 154 -147.32 154 -148 154 C-145.7867749 147.72919555 -142.63255481 142.66771011 -137 139 C-131.75868227 137.08490314 -126.52215638 136.47583207 -121 136 C-120.67 135.01 -120.34 134.02 -120 133 C-119.34 133 -118.68 133 -118 133 C-117.505 134.98 -117.505 134.98 -117 137 C-111.36010616 137.52711519 -111.36010616 137.52711519 -106.4375 135.25 C-104.85445393 133.15230128 -104.85445393 133.15230128 -104.8125 130.9375 C-106.69941554 127.85884833 -109.69403979 127.02135356 -113 126 C-114.98821313 125.60235737 -116.98732362 125.24544834 -119 125 C-119 126.32 -119 127.64 -119 129 C-119.66 129 -120.32 129 -121 129 C-121.50642925 125.93852743 -122.00399322 122.87567701 -122.5 119.8125 C-122.64308594 118.94818359 -122.78617188 118.08386719 -122.93359375 117.19335938 C-123.59314262 113.09473423 -124.20709266 109.16773976 -124 105 C-122.02 104.505 -122.02 104.505 -120 104 C-120 105.65 -120 107.3 -120 109 C-119.3709375 109.02578125 -118.741875 109.0515625 -118.09375 109.078125 C-110.66548863 109.57035919 -105.6372527 111.48190198 -99.5625 115.6875 C-96.64972836 119.99840203 -96.55306022 124.56381184 -97.4765625 129.59765625 C-99.44536007 136.76970453 -102.43388058 143.02978826 -109 147 C-111.33243938 147.06458299 -113.66774983 147.07108852 -116 147 C-115.39417652 163.86667017 -115.39417652 163.86667017 -107 178 C-104.27460199 179.22551712 -101.58181278 179.55571251 -98.62890625 179.8984375 C-96.98627647 180.15331317 -95.34369993 180.40853211 -93.70117188 180.6640625 C-91.13091771 181.02629826 -88.55944612 181.37540282 -85.98608398 181.71484375 C-71.51665312 183.68712953 -71.51665312 183.68712953 -67.50341797 187.16113281 C-65.5403181 190.04096056 -64 192.45896677 -64 196 C-63.2678125 196.27972656 -62.535625 196.55945313 -61.78125 196.84765625 C-59.23426607 197.90293751 -56.91284525 199.11126143 -54.5 200.4375 C-42.92979883 206.18303386 -30.8206169 206.5015418 -18.1875 206.6875 C-16.60869738 206.72076699 -15.0299202 206.75526484 -13.45117188 206.79101562 C-9.63425819 206.87482543 -5.81739139 206.94212682 -2 207 C-1.88536971 199.41042742 -1.88536971 199.41042742 -5.6328125 193.16796875 C-7.3041256 192.10847996 -7.3041256 192.10847996 -9.125 191.1875 C-10.06182617 190.64778564 -10.06182617 190.64778564 -11.01757812 190.09716797 C-17.66567157 186.38702808 -24.69504991 183.16271785 -32 181 C-32.89259521 180.73364746 -33.78519043 180.46729492 -34.70483398 180.19287109 C-46.6555097 177.13608224 -58.80482092 177.47159463 -71.0625 177.375 C-74.41221829 177.33837789 -77.76182413 177.2977471 -81.11143494 177.25234985 C-83.18148628 177.22533876 -85.25161999 177.20389575 -87.3217926 177.18881226 C-88.25724411 177.17855011 -89.19269562 177.16828796 -90.15649414 177.15771484 C-90.97364395 177.15121918 -91.79079376 177.14472351 -92.63270569 177.13803101 C-95.16333536 176.99047632 -97.52845909 176.55132143 -100 176 C-98.47879947 171.56177208 -96.04440778 167.99406346 -93.375 164.1875 C-73.15414339 134.53806413 -64.84235504 101.38519426 -70.61108398 65.97021484 C-70.99622497 63.80046108 -70.99622497 63.80046108 -72 61 C-67.6177261 61.62456192 -64.0110352 63.29169944 -60.109375 65.28125 C-59.45134384 65.61104355 -58.79331268 65.9408371 -58.11534119 66.28062439 C-55.99048674 67.34776587 -53.87020223 68.42364943 -51.75 69.5 C-50.29680864 70.23220516 -48.84343914 70.96405686 -47.38989258 71.69555664 C-39.10389737 75.87446028 -30.8433332 80.09996391 -22.68457031 84.5234375 C-20.13505259 85.9027529 -17.7589294 87.08035687 -15 88 C-14.51490207 86.62708132 -14.03724487 85.25153297 -13.5625 83.875 C-13.29566406 83.10929687 -13.02882812 82.34359375 -12.75390625 81.5546875 C-9.20712505 69.53606103 -9.38780256 53.65743482 -14 42 C-14.66 41.34 -15.32 40.68 -16 40 C-16 39.01 -16 38.02 -16 37 C-14.92878906 37.01160156 -13.85757813 37.02320313 -12.75390625 37.03515625 C-11.35677257 37.04453299 -9.95963701 37.05363331 -8.5625 37.0625 C-7.85544922 37.07087891 -7.14839844 37.07925781 -6.41992188 37.08789062 C-4.61306441 37.09653588 -2.80612397 37.05220011 -1 37 C0.71443219 35.28556781 0.23052967 32.99554759 0.31640625 30.65234375 C0.35830078 29.57275391 0.40019531 28.49316406 0.44335938 27.38085938 C0.48267578 26.24455078 0.52199219 25.10824219 0.5625 23.9375 C0.60568359 22.79732422 0.64886719 21.65714844 0.69335938 20.48242188 C0.79982839 17.65507805 0.90184207 14.82764262 1 12 C-0.2684375 11.9690625 -1.536875 11.938125 -2.84375 11.90625 C-3.55724609 11.88884766 -4.27074219 11.87144531 -5.00585938 11.85351562 C-7.70959662 12.05212512 -9.11198982 13.11198982 -11 15 C-11.99 13.68 -12.98 12.36 -14 11 C-12.54308827 7.6005393 -10.8814072 5.33627611 -8 3 C-5.69011685 2.25613932 -3.35684056 1.57809297 -1 1 C-0.67 0.67 -0.34 0.34 0 0 Z M4 96 C4 97.32 4 98.64 4 100 C4.66 99.67 5.32 99.34 6 99 C5.34 98.01 4.68 97.02 4 96 Z M3 109 C3 141.01 3 173.02 3 206 C10.08814338 209.54407169 23.58923804 205.41344704 31.1875 204.1875 C32.20352295 204.03450439 33.2195459 203.88150879 34.26635742 203.72387695 C35.70265503 203.47963989 35.70265503 203.47963989 37.16796875 203.23046875 C38.02672607 203.09020264 38.8854834 202.94993652 39.77026367 202.80541992 C42.58884316 201.78729951 43.50460781 200.55652029 45 198 C45 197.34 45 196.68 45 196 C47.475 195.505 47.475 195.505 50 195 C44.63040435 189.63040435 32.98498872 188.78924465 25.64501953 188.67431641 C19.04888333 188.71736588 12.55117177 189.2908869 6 190 C6.12117187 189.05608398 6.24234375 188.11216797 6.3671875 187.13964844 C13.7444969 146.80510929 13.7444969 146.80510929 6 109 C5.01 109 4.02 109 3 109 Z M14 109 C19.24253913 122.40628966 24.8438943 135.58980613 30.8125 148.6875 C32.39127324 152.16969079 33.96702405 155.65324711 35.54296875 159.13671875 C36.11815247 160.40647049 36.11815247 160.40647049 36.70495605 161.70187378 C41.56007157 172.42821598 46.29278642 183.20800664 51 194 C59.66614437 191.74642183 68.17328675 189.07995034 76.6875 186.3125 C77.98625382 185.89234835 79.28508154 185.47242511 80.58398438 185.05273438 C83.72338684 184.0373886 86.86203172 183.01976774 90 182 C85.65932062 177.65932062 76.64275635 178.81733806 70.75 178.8125 C69.98042969 178.80025391 69.21085937 178.78800781 68.41796875 178.77539062 C61.80340072 178.7590449 55.48961963 179.77469206 49 181 C48.69521729 180.29544678 48.39043457 179.59089355 48.07641602 178.86499023 C45.0740928 171.92644781 42.06837513 164.98938731 39.05940247 158.0537262 C37.28761733 153.9696619 35.51696591 149.88511128 33.74804688 145.79980469 C31.81928375 141.34582994 29.88737901 136.89322843 27.95358276 132.44143677 C27.19337342 130.689993 26.43419614 128.9381009 25.67605591 127.1857605 C24.60578006 124.7124877 23.5318344 122.24083932 22.45703125 119.76953125 C22.13671936 119.02706146 21.81640747 118.28459167 21.48638916 117.5196228 C20.16386984 114.48756733 18.84030322 111.76045483 17 109 C16.01 109 15.02 109 14 109 Z " fill="#FFFFFF" transform="translate(148,7)"/>
</svg>
