<?xml version="1.0" encoding="UTF-8"?>
<svg version="1.1" xmlns="http://www.w3.org/2000/svg" width="512" height="512">
<path d="M0 0 C168.96 0 337.92 0 512 0 C512 168.96 512 337.92 512 512 C343.04 512 174.08 512 0 512 C0 343.04 0 174.08 0 0 Z " fill="#8800FF" transform="translate(0,0)"/>
<path d="M0 0 C0.66918457 0.23605957 1.33836914 0.47211914 2.02783203 0.71533203 C14.95597431 5.30693924 26.89845168 11.88337244 37.5 20.625 C41.31681853 23.65800758 44.23967594 23.51003472 49 23 C51.57281882 15.77160428 53.36695592 8.49347179 55 1 C57.64 1 60.28 1 63 1 C63.18316034 30.67761101 62.65060066 60.33018729 62 90 C59.03 90 56.06 90 53 90 C52.80422363 89.02728149 52.80422363 89.02728149 52.60449219 88.03491211 C46.68938232 56.20856763 46.68938232 56.20856763 30 29 C29.33355469 28.22785156 28.66710937 27.45570313 27.98046875 26.66015625 C13.96610866 11.44976543 -7.98307819 4.60153191 -28.19140625 3.71484375 C-48.40077717 3.20231368 -64.56785422 7.27089238 -80 21 C-80.68707031 21.59296875 -81.37414062 22.1859375 -82.08203125 22.796875 C-96.14219601 35.77548863 -104.78542826 55.95533088 -110 74 C-110.35835937 75.24007812 -110.71671875 76.48015625 -111.0859375 77.7578125 C-116.47171653 97.31761476 -117.54607622 116.92964367 -117.4375 137.125 C-117.43512329 138.28855011 -117.43274658 139.45210022 -117.43029785 140.65090942 C-117.37570307 157.72542747 -116.88426895 174.30242207 -113 191 C-112.83983398 191.71349609 -112.67966797 192.42699219 -112.51464844 193.16210938 C-111.57548131 197.2019238 -110.37711607 201.090146 -109 205 C-108.79149414 205.61810547 -108.58298828 206.23621094 -108.36816406 206.87304688 C-103.03516385 222.6166208 -95.71782964 236.27368819 -85 249 C-84.43925781 249.67546875 -83.87851563 250.3509375 -83.30078125 251.046875 C-71.85182251 263.62054253 -53.74884848 271.58838267 -36.953125 272.40625 C-13.99692468 272.93967776 8.90902023 268.58575057 26.9375 253.375 C45.93468598 234.66305705 50.07464566 208.40439299 53 183 C55.97 183 58.94 183 62 183 C62.02505615 184.46711426 62.0501123 185.93422852 62.07592773 187.44580078 C62.58300844 216.96800302 63.14319496 246.4856837 64 276 C61.03 276 58.06 276 55 276 C53.83055323 273.66110647 53.83017965 272.04242275 53.6875 269.4375 C53.22491072 264.22009962 51.85792946 257.85792946 48 254 C41.97085739 253.1201712 38.50231401 255.76316153 33.6875 258.9375 C32.08306706 259.95292222 30.47623698 260.96456542 28.8671875 261.97265625 C28.05604492 262.48199707 27.24490234 262.99133789 26.40917969 263.51611328 C7.09530295 275.41211478 -11.48560717 281.44101939 -34.375 281.25 C-35.55674805 281.24323242 -36.73849609 281.23646484 -37.95605469 281.22949219 C-68.39995318 280.86955608 -96.01637749 271.3854287 -118 250 C-118.75796875 249.30390625 -119.5159375 248.6078125 -120.296875 247.890625 C-144.34309298 225.17109491 -156.0109216 189.1933655 -157.07125854 156.82470703 C-157.19176181 151.73876632 -157.22912686 146.65364861 -157.24023438 141.56640625 C-157.24990668 138.90072002 -157.28101378 136.23581793 -157.3125 133.5703125 C-157.40679712 118.41529342 -155.57381069 103.93197805 -151.25 89.375 C-150.86485229 88.06172729 -150.86485229 88.06172729 -150.47192383 86.72192383 C-140.90917003 55.16339829 -121.27043949 25.75458071 -91.8671875 9.66796875 C-65.45545259 -4.13284201 -28.73468634 -10.79552876 0 0 Z " fill="#FDFBFF" transform="translate(167,118)"/>
<path d="M0 0 C30.03 0 60.06 0 91 0 C91 2.64 91 5.28 91 8 C89.9378125 8.09796875 88.875625 8.1959375 87.78125 8.296875 C75.48146496 9.48755062 75.48146496 9.48755062 65 15.75 C60.10561647 26.76236294 69.25728015 42.67280402 73.1640625 52.9375 C73.67018653 54.27617662 74.1759433 55.61499214 74.68136597 56.95393372 C75.76094899 59.81168643 76.84297151 62.66849805 77.92700195 65.52456665 C79.65780712 70.08477407 81.38302305 74.6470837 83.10742188 79.2097168 C85.21765873 84.79220383 87.32914829 90.3742137 89.44232559 95.95558834 C94.93072693 110.45210732 100.39722123 124.95686484 105.86132812 139.46255493 C107.22150328 143.07340488 108.58212476 146.68408644 109.9428978 150.29471111 C119.32371731 175.18581478 128.67315477 200.08861719 138 225 C144.55927681 208.7199113 150.97406755 192.39121588 157.25 176 C158.99656919 171.44629724 160.74438693 166.893074 162.4921875 162.33984375 C162.93966339 161.17363998 163.38713928 160.00743622 163.84817505 158.80589294 C167.59196666 149.05250621 171.35488527 139.30657742 175.12271118 129.56245422 C178.82783447 119.98044833 182.52620146 110.39585732 186.21908569 100.80912781 C188.22983938 95.58957532 190.24250136 90.37080215 192.26367188 85.15527344 C193.93002455 80.85500462 195.58779258 76.55153858 197.23809814 72.24508667 C197.81387046 70.74701277 198.39275248 69.25012898 198.97528076 67.75466919 C208.31300676 45.07021728 208.31300676 45.07021728 207.08203125 21.4921875 C203.40071468 15.03499145 198.00590217 12.03688598 191 10 C188.21921651 9.51456962 185.43020948 9.1844354 182.625 8.875 C181.52091797 8.74544922 181.52091797 8.74544922 180.39453125 8.61328125 C178.59700818 8.40318115 176.79858658 8.20079233 175 8 C175 5.36 175 2.72 175 0 C199.42 0 223.84 0 249 0 C249 2.64 249 5.28 249 8 C247.82244141 8.52787109 247.82244141 8.52787109 246.62109375 9.06640625 C227.15292699 18.21525026 220.91028573 35.67653612 213.6875 54.75 C212.90679398 56.78198501 212.12478152 58.81346848 211.34155273 60.84448242 C209.70607253 65.0903774 208.07744335 69.33880522 206.45410156 73.58935547 C204.08086258 79.79797902 201.68170094 85.99629591 199.2734375 92.19140625 C198.88547501 93.18955353 198.49751251 94.18770081 198.09779358 95.21609497 C197.31317495 97.234616 196.52851205 99.25311982 195.74380493 101.27160645 C193.75373028 106.39442022 191.76950316 111.51949668 189.78515625 116.64453125 C185.42227602 127.91115772 181.05504763 139.17609396 176.68649292 150.44052124 C174.70747119 155.54360686 172.72875086 160.64680934 170.75 165.75 C169.95833478 167.79166723 169.16666811 169.83333389 168.375 171.875 C167.983125 172.885625 167.59125 173.89625 167.1875 174.9375 C163.625 184.125 163.625 184.125 162.43777466 187.18676758 C161.64517081 189.23086726 160.85258866 191.27497535 160.06002808 193.3190918 C158.09537697 198.38610218 156.13036363 203.45297146 154.16455078 208.51953125 C150.42831155 218.15024935 146.69615695 227.78250408 142.97564697 237.41931152 C141.20409146 242.00735136 139.43061639 246.59464808 137.65698242 251.18188477 C136.80624457 253.38382309 135.95646333 255.58613127 135.10766602 257.78881836 C133.93612235 260.82888236 132.76138832 263.86769502 131.5859375 266.90625 C131.23586639 267.81721436 130.88579529 268.72817871 130.52511597 269.66674805 C130.04547897 270.9038855 130.04547897 270.9038855 129.55615234 272.16601562 C129.27814789 272.88648071 129.00014343 273.6069458 128.7137146 274.34924316 C128 276 128 276 127 277 C125.00041636 277.04080783 122.99954746 277.04254356 121 277 C109.39984518 247.41572662 97.86646522 217.80623313 86.39111328 188.17333984 C82.82589103 178.96756242 79.25601807 169.76358837 75.68649292 160.55947876 C73.70747119 155.45639314 71.72875086 150.35319066 69.75 145.25 C68.95833478 143.20833277 68.16666811 141.16666611 67.375 139.125 C65.79166667 135.04166667 64.20833333 130.95833333 62.625 126.875 C62.23318039 125.86454117 61.84136078 124.85408234 61.43766785 123.81300354 C60.64537818 121.76968303 59.8531521 119.72633787 59.06098938 117.68296814 C57.09187331 112.60390192 55.12168272 107.52525788 53.14916992 102.44750977 C49.46551611 92.96149585 45.79256293 83.47174362 42.15615845 73.96749878 C40.45535278 69.52412641 38.74864222 65.08303243 37.04150391 60.64208984 C36.23664407 58.5434426 35.43461417 56.44370732 34.63574219 54.34277344 C30.96744121 44.69742869 27.26682005 35.11940228 22.6875 25.86328125 C22.37178543 25.22168564 22.05607086 24.58009003 21.73078918 23.91905212 C17.21064001 15.09409196 11.34591336 11.62319741 2.125 8.62890625 C1.073125 8.31759766 1.073125 8.31759766 0 8 C0 5.36 0 2.72 0 0 Z " fill="#FDFBFF" transform="translate(254,119)"/>
<path d="M0 0 C0.33 0 0.66 0 1 0 C1 13.53 1 27.06 1 41 C-12.53 41 -26.06 41 -40 41 C-36.76284016 39.38142008 -33.61375469 38.05715856 -30.25 36.75 C-17.68117409 31.49394553 -8.15454317 22.24628755 -2.9296875 9.5625 C-1.78124284 6.39703909 -0.79959012 3.27105048 0 0 Z " fill="#000000" transform="translate(511,471)"/>
<path d="M0 0 C1.61102614 3.22205228 2.90350921 6.33510084 4.1875 9.6875 C9.4388475 22.28767199 18.80051593 31.77110159 31.40234375 37.03515625 C34.57753084 38.21451146 37.71018197 39.19582226 41 40 C41 40.33 41 40.66 41 41 C27.47 41 13.94 41 0 41 C0 27.47 0 13.94 0 0 Z " fill="#000000" transform="translate(0,471)"/>
<path d="M0 0 C13.53 0 27.06 0 41 0 C41 13.53 41 27.06 41 41 C39.38897386 37.77794772 38.09649079 34.66489916 36.8125 31.3125 C31.5611525 18.71232801 22.19948407 9.22889841 9.59765625 3.96484375 C6.42246916 2.78548854 3.28981803 1.80417774 0 1 C0 0.67 0 0.34 0 0 Z " fill="#000000" transform="translate(471,0)"/>
<path d="M0 0 C13.53 0 27.06 0 41 0 C37.76284016 1.61857992 34.61375469 2.94284144 31.25 4.25 C18.68117409 9.50605447 9.15454317 18.75371245 3.9296875 31.4375 C2.78124284 34.60296091 1.79959012 37.72894952 1 41 C0.67 41 0.34 41 0 41 C0 27.47 0 13.94 0 0 Z " fill="#000000" transform="translate(0,0)"/>
</svg>
