<?xml version="1.0" encoding="utf-8"?>
<!-- Generator: Adobe Illustrator 25.0.1, SVG Export Plug-In . SVG Version: 6.00 Build 0)  -->
<svg version="1.1" id="Layer_1" xmlns="http://www.w3.org/2000/svg" xmlns:xlink="http://www.w3.org/1999/xlink" x="0px" y="0px"
	 viewBox="0 0 500.6 504.5" style="enable-background:new 0 0 500.6 504.5;" xml:space="preserve">
<g>
	<g>
		<path d="M113,233.1C55,231.7,7.5,184.8,7.5,125.3c0-61.8,49.9-108.9,108.8-108.2c60.6,0.7,108.3,49.9,107.2,109.8
			C222.3,186.9,173.3,234.1,113,233.1z M114.1,224.5c54.7,0.9,100.4-43.5,100.7-99c0.3-54.2-44.1-99.3-98-99.9
			C61.1,25,16.1,70.4,16,124.7C15.9,179.2,60,224.2,114.1,224.5z"/>
		<path d="M118,132.3c-0.9-1.1-1.6-1.9-2.5-2.9c-0.9,1.1-1.7,2.1-2.7,3.3c-3.5-5-6.7-10-10.3-14.7c-8.2-10.9-16.6-21.7-25.1-32.3
			c-2.5-3.1-3.6-5.9-2.1-9.8c2.6-6.9,5-14,7.2-21.1c1.3-4.2,3.8-7.1,7.8-8.7c7-2.9,14-5.7,21.1-8.4c0.6-0.2,1.7,0,2.3,0.4
			c1.2,0.9,2.2,1,3.5,0c0.6-0.5,1.8-0.7,2.5-0.4c7.6,3,15.1,6.1,22.6,9.2c2.4,1,4,2.8,4.9,5.2c3.1,8.9,6.1,17.7,9.1,26.6
			c0.6,1.6,0.2,2.9-0.9,4.2c-12.7,15.3-25,31-36,47.7C119.1,131.2,118.6,131.6,118,132.3z"/>
		<path d="M76.3,202.7c2.2-1.1,4.1-2.1,6.2-3c0.5-0.2,1.3-0.2,1.8,0c3.9,1.7,7.2,0.6,10.3-1.8c3.1-2.5,5.1-5.7,6.3-9.4
			c3.6-10.7,5-21.6,3.4-32.9c-0.8-5.5-3.6-10-7.9-13.5c-0.8-0.7-2.1-1.1-3.1-1c-6.4,0.2-12.7,0.4-19,1c-7.9,0.7-15.6,0.1-23.2-1.9
			c-14.5-3.9-23.4-13.7-22.5-29.8c0.4-6.5,3.5-12,7.3-17.1c4.7-6.4,10.5-11.7,17-16.2c1.7-1.2,2.9-1.2,4.2,0.5
			c2,2.5,2.1,3.1,0.3,4.9c-3.9,3.9-8,7.7-11.9,11.7c-1.6,1.6-2.8,3.5-4.2,5.2c-4.3,5.5-5.5,11.7-4.1,18.4
			c1.3,6.5,5.6,10.9,11.6,13.2c10.9,4.2,21.8,3.3,32.5-1c3.4-1.4,4.4-3.7,3.2-6c-1.3-2.5-4.1-3.2-7.1-1.5c-1,0.5-1.9,1.3-2.7,2.1
			c-0.8,0.8-1.4,1.8-2.2,2.6c-9.1-7.1-7.6-23.3,2.9-31.1c1.6,4.5,1.2,10.5,8.3,10.9c-0.6,1.7-1.1,3.2-1.5,4.7c2.6-1.6,3.2-4.1,3-6.6
			c-0.2-2.5-0.9-4.9-1.4-7.3c2,0.8,11.6,12.8,13.3,16.8c-1.9-0.5-3.8-1-5.7-1.6c-0.7,3.8,1.3,8.4,4.3,10.1c3.7,2.1,7.5,4,11.2,6.1
			c0.9,0.5,1.8,1.4,2.2,2.4c1.3,3,2.6,6,3.5,9.1c0.9,3,1.6,6.2,1.8,9.3c0.5,13.5-1.4,26.8-5.1,39.8c-2,6.9-6.1,12.6-11.8,16.9
			C91.4,211.2,81.1,209.3,76.3,202.7z"/>
		<path d="M155.3,96.1c12.9,8.8,11,25.1,3.2,31.1c-0.6-0.7-1.1-1.5-1.7-2.2c-1.7-1.9-3.7-3.2-6.3-3.5c-1.9-0.1-3.2,0.7-3.9,2.4
			c-0.7,1.7-0.7,3.6,1,4.7c1.9,1.2,4,2.3,6.2,3c8.1,2.5,16.2,2.4,24.4,0.8c2.1-0.4,5.5,4.2,4.4,6.1c-0.5,0.8-1.8,1.4-2.9,1.6
			c-9,2.2-18.1,2.5-27.3,1.6c-4.2-0.4-8.5-0.4-12.8-0.7c-3.9-0.2-6.6,1.7-8.9,4.8c-3.2,4.4-4.8,9.4-4.7,14.8
			c0.1,6.1,0.8,12.2,1.3,18.3c0.1,1.3-0.1,2.1-1.2,2.9c-1.8,1.2-3.4,2.6-5.4,4.2c-0.4-1.9-0.7-3.5-1-5.1
			c-2.2-11.2-3.7-22.4-2.8-33.8c0.3-4,2.5-7.9,3.6-11.9c1.1-4,3.5-6.5,7.3-8c2.6-1,5-2.6,7.5-3.9c3.3-1.7,4.5-4.6,4.6-8
			c0.1-2-0.7-2.5-2.6-1.9c-1,0.3-1.9,0.7-3.5,1.3c4.1-6.5,8.3-12.2,13.3-17.4c-1.3,5.1-2.4,10,1.2,14.5c0.2,0,0.4-0.1,0.6-0.1
			c-0.5-1.7-1.1-3.3-1.7-5.2C154.6,106.6,154.4,101.1,155.3,96.1z"/>
		<path d="M179.3,179.5c-0.6-2.4-1.2-4.5-1.6-6.6c-0.1-0.6,0.4-1.6,1-1.9c8.5-5,13.4-18.1,7.8-30.3c-3.2-7-7.4-13.5-11.4-20.1
			c-4-6.7-8.6-13.2-11.2-20.7c-2.3-6.6-2.2-13.3-1-20.1c0.1-0.6,0.4-1.2,0.6-1.8c0.1-0.2,0.3-0.3,0.7-0.8c1.9,1.6,3.7,3.1,5.5,4.8
			c0.3,0.3,0.4,1.1,0.3,1.6c-1.8,8.1,0.2,15.5,4.5,22.3c4.2,6.5,8.9,12.7,12.8,19.3c3,5,5.8,10.2,7.8,15.7c4.4,12,1.5,22.7-6.8,32.1
			c-1.7,1.9-3.8,3.5-5.8,5.1C181.7,178.7,180.6,179,179.3,179.5z"/>
		<path d="M171.9,56.7c-0.8-0.5-1.6-0.9-2.3-1.4c-0.7-0.5-1.4-1.1-2.1-1.5c-3-1.6-6,0-6.2,3.3c-0.2,2.8,0.7,5.3,2.5,7.1
			c3.8,3.8,7.9,7.4,12,10.9c4.9,4.3,10.1,8.2,14.7,12.7c5.5,5.4,9.7,11.7,11.4,19.3c1.9,9-0.3,17.2-6.3,24.2
			c-0.3,0.4-0.7,0.7-1.3,1.2c-1.3-2.2-2.5-4.2-3.6-6.3c-0.2-0.4,0-1.3,0.2-1.7c5.3-8.1,4.6-16.1-0.4-24c-4.7-7.4-11.4-13-17.8-18.8
			c-4.3-3.9-8.6-7.8-12.5-12c-3.9-4.2-6.8-9-6.1-15.2c0.5-4.3,2.9-7,7.1-7.8c2.8-0.6,5.1,0.1,7.2,2.1c2.1,2.1,3.5,4.5,4.1,7.3
			C172.3,56.4,172.1,56.5,171.9,56.7z"/>
		<path d="M36.5,84.7c-1.9-1.9-1.9-3.7-1.4-5.4c1.1-4,3-7.7,6.1-10.6c3.9-3.7,8.5-4.4,13.5-2.6c9.1,3.2,14,10.1,14.5,20
			c0.4,7.8-1.8,14.9-5.5,21.5c-4,7.1-8.6,13.8-12.9,20.8c-0.8,1.3-1.7,1.4-3,0.7c-4.8-2.6-5-3.1-1.9-7.5c3.5-5.2,7.2-10.3,10.7-15.5
			c4.3-6.6,5.9-13.9,5-21.7c-0.6-5.2-3.4-9-8.1-11.3c-5.9-2.8-12.9,0.7-15.4,7.5C37.4,81.8,37,83,36.5,84.7z"/>
		<path d="M69.4,183.2c-3.2-0.2-6.3,0-9.3-0.6c-12.1-2.5-20.3-9.7-24.7-21.3c-3-7.8-2.2-15.4,1.1-22.9c0.7-1.6,1.6-1.7,3-1
			c4.8,2.3,4.8,2.2,3.6,7.3c-1.8,7.7-0.9,15,3.8,21.5c4.3,5.8,10.7,7.8,17.4,9c1.6,0.3,3.3,0.3,5.1,0.4
			C69.4,177.9,69.4,180.3,69.4,183.2z"/>
		<path d="M161.9,183.1c-10.4-0.5-18.9-4.9-26.4-11.7c-2.1-1.9-4.2-3.8-6.3-5.6c-1.3-1.1-2.1-2.2-1.6-4.1c0.7-3.1,1.2-6.4,1.8-9.5
			c0.4-1.9,1.6-2.5,3.5-2.1c3.6,0.7,3.7,0.6,3.8,4.4c0.3,7.7,4.6,12.7,11,16.2c4.4,2.4,9.2,3.8,14.2,4.4c3.4,0.4,5.6,2.9,5.5,6.3
			c0,0.5-0.7,1.3-1.2,1.4C164.8,183,163.4,183,161.9,183.1z"/>
		<path d="M53.8,182.8c2,0.5,3.7,0.7,5.3,1.4c1.3,0.6,2.4,1.7,3.5,2.7c0.3,0.2,0.3,0.6,0.6,0.9c4.6,6.4,7.7,7,13.5,4
			c3.8-2,7.6-4.2,11.2-6.6c3.6-2.3,7.4-3.1,11.5-2.9c1.6,0.1,2.1,0.6,1.5,2.1c-0.4,1-0.7,2-1.1,3.1c-0.6,1.6-1.7,2.3-3.4,2.8
			c-3.3,1.1-6.4,2.9-9.5,4.5c-4,2.1-7.8,4.7-12,6.2c-6.8,2.5-14.3-0.7-17.7-7.2c-1.5-2.8-2.3-6-3.3-9.1
			C53.7,184.3,53.8,183.7,53.8,182.8z"/>
		<path d="M99.3,147.6c-2.8,1-5.5,1.4-7.7,2.8c-5,3.2-9.9,6.5-14.4,10.3c-4.2,3.6-7.9,7.7-11.7,11.7c-1.1,1.1-2.2,1.2-3.5,0.8
			c-5.6-1.3-6.2-2.3-2.8-6.8c2.9-3.7,6.4-7,9.8-10.3c4-4,8-8,12.1-12c0.6-0.6,1.4-1.2,2.1-1.2c3.4-0.1,6.8-0.2,10.2,0
			C96.1,143.1,97.9,145,99.3,147.6z"/>
		<path d="M152.2,183.3c2.1,0.4,4,0.7,5.9,1c1.2,0.2,1.9,0.8,1.5,2.1c-1.4,5-2.3,10.2-4.4,14.9c-3.9,8.4-15.4,10.7-22.6,4.8
			c-2.4-2-4.4-4.5-6.6-6.8c-1.4-1.5-1.1-2.9,0.4-4.1c0.2-0.1,0.3-0.3,0.5-0.4c3.5-3,3.6-2.9,6.6,0.5c1.5,1.6,3.2,3.2,5.1,4.3
			c4.5,2.6,8.8,1,10.6-3.9c1-2.8,1.6-5.8,2.3-8.8C151.8,185.7,152,184.6,152.2,183.3z"/>
		<path d="M166.2,159.7c5.9,6.2,10,12.6,11.2,20.5c1.2,8.3-5.3,18.9-12.9,20.9c-1.9,0.5-4.1,0.2-6.1,0.2c0.3-1.6,0.4-3.3,1-4.9
			c0.4-1.1,1-2.5,1.9-3c8.2-4.4,10-10.4,5.6-18.5c-0.9-1.7-2-3.4-3.1-5c-1-1.4-1.2-2.7-0.5-4.2C164.3,163.8,165.1,162,166.2,159.7z"
			/>
		<path d="M129.3,212.4c-3.4,0.9-5.6-0.2-7.7-2.2c-5-4.6-5.1-14.4-1.4-20.1c5.2-8,13.2-10.1,21.5-5.4c2.3,1.3,4.5,2.6,6.6,4.2
			c0.5,0.4,0.9,1.6,0.8,2.3c-0.4,1.7-1.2,3.3-1.9,5.3c-2.1-1.3-4-2.4-5.8-3.5c-3.2-1.8-6.5-3.6-10.4-2.5c-4.3,1.2-7.4,3.8-8.6,8.3
			c-1.2,4.4,0.7,7.9,3.8,10.8C127.1,210.5,128.1,211.3,129.3,212.4z"/>
		<path d="M80.2,181c-0.2-2.8-0.6-5-0.5-7.3c0-0.8,1.3-1.6,2-2.2c2.7-2.2,5.7-4.2,8.2-6.6c3.3-3.1,4.4-7.3,4-11.7
			c-0.1-1.9,0.7-2.5,2.3-2.9c4-0.8,4.5-0.7,5.5,3.2c0.7,2.9,1.1,5.9,1.5,8.9c0.1,0.8-0.3,2-0.8,2.5c-6.1,5.3-11.7,11.2-19.1,14.7
			C82.5,180.1,81.7,180.4,80.2,181z"/>
		<path d="M177.8,160.6c-0.2-1.3-0.4-2.2-0.5-3.1c-0.7-3.9-3.8-5.6-7.4-3.7c-1.7,0.9-3.3,2.4-4.5,3.9c-2.8,3.8-4.2,8.2-4.9,12.8
			c-0.5,2.9-0.7,3-3.5,2.3c-3.5-0.9-3.8-1.4-3-5c1.2-5.5,2.9-10.7,6.8-15c3.6-3.8,8-5.5,13.2-5.1c2.6,0.2,4.8,1.4,5.8,3.9
			c1.1,2.7,0.9,5.4-0.5,7.9C179.2,160,178.5,160.2,177.8,160.6z"/>
		<path d="M67.5,73.4c-1.5-1.7-2.7-3.2-3.9-4.6c1.6-2.1,3.2-3.9,4.3-5.9c0.9-1.7,1.5-3.8,1.6-5.7c0.2-3.1-2.2-4.7-5.2-3.7
			c-1.1,0.4-2.1,1.2-3.1,1.8c-0.8,0.5-1.5,1-2.4,1.6c-0.2-4.8,4.4-10,8.8-10.2c5-0.3,9.2,3.6,9.3,8.7C77,62.9,72.8,68.1,67.5,73.4z"
			/>
		<path d="M131.6,147.9c2.3-3.5,4.7-5.7,8.7-5.5c1.5,0.1,3,0.1,4.5,0.2c2.8,0.1,5,0.8,6.6,3.6c1.4,2.3,3.7,4,5.7,5.8
			c0.9,0.8,1,1.4,0.4,2.5c-3.4,5.9-3.3,5.9-8.8,1.9C143.6,152.7,138.5,148.9,131.6,147.9z"/>
		<path d="M76,164.1c0.6,2.9,1.2,5.8,1.6,8.7c0.6,4.9,1.1,9.7,1.6,14.6c0.1,0.7-0.5,1.9-1.1,2.3c-1.7,1-3.6,1.6-5.8,2.5
			c-0.3-2.1-0.6-3.8-0.8-5.5c-0.4-5-0.7-9.9-1-14.9C70.3,168.1,72,165.6,76,164.1z"/>
		<path d="M171,69c6.7-5.8,15.6-5.1,20.6,1.7c1.9,2.6,3.1,5.8,4.4,8.8c0.7,1.6,0.6,3.5-1.4,4.8c-0.9-2-1.6-3.9-2.5-5.8
			c-1.5-3.1-3.9-5.1-7.1-6.2c-2.2-0.8-4.4-0.8-6.5,0.2c-1.2,0.6-2.1,0.5-3.2-0.3C173.9,71.2,172.5,70.1,171,69z"/>
		<path d="M65.6,157.1c-2.5-2.2-4.8-4.6-8.4-3.8c-4,0.8-3,4.9-4.3,7.5c-2.4-1.5-3.4-4.4-2.8-7.5c0.5-2.7,2.7-5,5.8-5.4
			c4.8-0.7,9.1,0.6,13,3.4c1.2,0.9,1.3,1.8,0.1,2.8C67.9,155,66.8,156,65.6,157.1z"/>
		<path d="M110.7,190.6c4.3,6.4,3.3,15.6-2.3,20.3c-1.7,1.4-3.7,2.3-6.4,1.5c0.6-0.7,1-1.3,1.6-1.7c3.9-3.1,5.9-6.9,5.1-12.1
			C108.2,195.8,109.2,193.3,110.7,190.6z"/>
	</g>
	<g>
		<path d="M267.1,125c-0.4-59.2,48.8-108.6,109.2-107.9c58.6,0.6,107.6,49.3,106.7,109.6c-0.8,58.5-49.4,107-109.2,106.4
			C315.3,232.5,266.6,184.2,267.1,125z M374.9,225.8c55.3,0,100.8-45.2,100.9-100.2c0-55.7-45.1-101.1-100.3-101.2
			c-55.8,0-101.1,45.1-101.1,100.8C274.3,180.3,319.7,225.7,374.9,225.8z"/>
		<path d="M357.3,68.1c-0.7-2.2,0.8-2.5,2-3c3.6-1.6,4.3-4.3,1.8-7.4c2.2-1,4.2-0.3,5.9,1c1.9,1.4,1.8,3.4,1.4,5.4
			c-0.1,0.9-0.5,1.8-1,2.5c-2.7,4-2.5,8.2-1.3,12.6c0.3,1,0.5,2.1,0.5,3.1c0.2,2.2-0.4,4.3-2.4,5.5c-1.9,1.1-3.8,0.8-5.6-0.7
			c0.8,2.6,2.9,2.8,5.2,2.5c0.3,3.2-0.6,6.6,2.6,9.6c-0.3-1.2-0.4-1.8-0.6-2.4c-0.9-2.9-0.9-5.8,0.7-8.5c1.9-3.1,2.3-6.2,1.2-9.7
			c-0.6-1.9-0.6-4.1-0.7-6.1c3,3.2,7.6,5.7,3.9,11.1c2.5-0.7,3.5-3.6,2.1-6.6c-0.5-1.2-1.4-2.3-2.3-3.3c-2-2.2-2.6-4.4-1.3-7.2
			c1.3-2.9,1.2-4.1,0.1-7.2c1.6-2.1,3.3-3.8,4.2-5.9c0.5-1.1-0.1-3-0.7-4.2c-1.4-2.7-5.4-3.4-8.9-1.4c1.7,0,2.7-0.1,3.8,0
			c3,0.2,4.9,2.4,4.5,5c-0.4,2.5-3,4.2-5.7,3.3c-3.1-1.1-5.9-0.6-8.7,0.6c-2.1,0.9-4,0-5.6-1.4c-1.9-1.7-2.4-4-1.8-6.4
			c0.6-2.6,2.2-4.5,4.5-5.7c13.2-6.5,26.4-6.6,39.6,0.1c3.8,1.9,5.3,5.8,4.2,9.3c-1.1,3.6-4.6,5.2-8,3.8c-2.4-1-4.9-1.4-7.5-0.5
			c-1.8,0.7-4,0.7-5.1-1.1c-0.7-1.2-1.1-3.1-0.8-4.4c0.6-1.9,2.5-2.7,4.5-2.7c0.9,0,1.9,0,3.2,0c-3.2-2-7.4-1-9,1.8
			c-1.8,3.3-0.4,6.6,4.3,9c-1.9,3.1-1.2,6.2,0.2,9.4c0.9,2.3-0.3,4.1-1.8,5.7c-2,2-3.1,4.2-2.7,7.1c0.2,1.5,0.8,2.7,2.8,3.3
			c-3.9-5.6,0.6-8.3,3.9-11.4c-0.3,2.2-0.5,4.5-1.1,6.6c-0.7,2.9-0.7,5.7,0.9,8.3c2.1,3.3,2.3,6.8,0.9,10.4
			c-0.1,0.2-0.1,0.4-0.1,0.7c0,0.1,0.1,0.1,0.2,0.4c2.8-2.6,1.9-6,2.2-9.2c2.2,0.2,4.4,0.2,5.5-2.9c-2.3,1.8-4.4,2.5-6.4,0.7
			c-2.2-1.9-2.3-4.5-1.7-7.1c0.9-3.5,1.7-6.9,0.6-10.5c-0.6-1.8-1.8-3.5-2.3-5.4c-1.4-4.4,1.8-8,6.3-7.2c0.3,0,0.5,0.2,0.8,0.4
			c-2.4,3.3-1.7,5.9,2,7.5c1.2,0.5,2.6,0.9,1.8,3c1.8-0.8,1.6-1.8,0.8-2.8c-0.7-0.8-2-1.2-2.6-2.1c-0.6-0.8-0.8-2-1.2-3
			c1.1-0.3,2.5-1.2,3.1-0.8c1.5,0.9,2.9,2.2,3.8,3.6c1.1,1.7,1.6,3.7,2.3,5.6c1.2,3,3,5.3,6.2,6.4c3.5,1.3,5.7,3.9,6.9,7.3
			c1.5,4.5,1.3,8.9-0.4,13.3c-1.3,3.3-3.7,5.5-7.2,6.3c-1.3,0.3-1.6,0.9-2.1,2.2c-0.8,2.1-1.9,4.2-3.4,6c-0.7,0.9-2.4,1-3.9,1.2
			c1.5-2.3,2.4-4.4,1.7-7.1c-1-3.6-4-5-7.1-2.9c-1.6,1.1-3.1,2.8-3.9,4.5c-1.2,2.5-2.1,5.3-2.7,8.1c-0.5,2-0.3,4.2,2.1,5.2
			c1.8,0.8,4.9-0.4,6.2-2.2c0.3-0.5,0.6-0.9,1-1.5c1.2,2.1,1,5-0.5,6.8c-1.9,2.4-5.2,3-9.9,1.6c-0.6,1.9,0,3.5,1.2,5
			c3,3.8,4.6,8.1,2.7,12.8c-0.6,1.6-1.9,3-3.1,4.3c-0.5,0.6-1.6,0.7-2.8,1.1c0.1-0.9,0-1.3,0.2-1.6c2.4-3.8,0.8-7.1-1.2-10.3
			c-1.3-2-2.6-3.9-4.2-6.3c-2.1,3.8-4.3,7.3-6,11c-0.5,1.2,0.2,3,0.4,4.6c0.1,0.6,0.5,1.2,0.8,1.9c-2.2,0.7-3.4-0.5-4.4-1.8
			c-2.7-3.3-3.2-7.1-1.7-11.1c0.7-1.8,2-3.4,2.8-5.1c0.7-1.4,1.1-2.9,1.9-5c-4.4,1.4-8,1.9-10.7-1.4c-1.6-1.9-1.7-4.2-1-6.6
			c1.5,1.2,2.7,2.5,4.1,3.2c3.4,1.6,6-0.1,5.8-3.8c-0.3-4.4-1.8-8.4-4.6-11.8c-2.3-2.8-5.5-3.4-7.5-1.8c-2.1,1.7-2.9,6.9-0.3,8.9
			c0.2,0.1,0.2,0.4,0.2,1.2c-1.1-0.3-2.3-0.3-3.3-0.8c-2.5-1.4-3.3-4-4-6.5c-0.2-0.7-0.7-1.6-1.3-1.7c-5.4-1.3-8.1-5.1-8.9-10.2
			c-0.8-4.7-0.5-9.4,2.8-13.3c1.3-1.5,3-2.8,4.8-3.6c3.2-1.3,5.1-3.5,6.3-6.7c0.7-1.9,1.3-3.9,2.3-5.6c0.8-1.4,2.1-2.5,3.4-3.5
			c1.1-0.8,2.6-0.7,3.3,0.7c0.7,1.4,0,2.4-1.2,3.2c-0.9,0.6-2,1.2-2.6,2.1c-0.4,0.6-0.1,1.6-0.1,2.4C356.7,68,357,68.1,357.3,68.1z
			 M377.9,127.2c0.2-0.1,0.5-0.2,0.7-0.3c0.6-3.4-1.3-6-2.3-8.2c-1.2-0.2-1.8-0.3-2.6-0.4c-1.1,2.7-3.1,5.4-2.4,8.6
			c0.2,0.1,0.5,0.2,0.7,0.3c0.5-0.8,1.1-1.6,1.6-2.3c0.5,0.5,0.9,0.9,1.4,1.3c0.5-0.6,0.9-1,1.3-1.4
			C376.9,125.7,377.4,126.4,377.9,127.2z M363.8,76.9c-0.8-1.8-1.5-3.6-2.4-5.2c-0.7-1.2-1.6-0.9-2.3,0.1c-0.9,1.2-0.5,2.2,0.5,3.1
			c1.7,1.5,1.7,2.5,0.2,4.1c-0.3,0.3-0.8,0.6-0.7,0.8c0.1,0.9,0.3,1.9,0.5,2.8c0.7-0.2,1.8-0.2,2.1-0.7
			C362.6,80.5,363.1,78.8,363.8,76.9z M386.3,77.1c0.7,1.7,1.2,3.3,2,4.7c0.3,0.5,1.4,0.5,2.1,0.7c0.2-0.9,0.5-1.9,0.5-2.8
			c0-0.4-0.7-0.7-1-1.1c-1.1-1.2-1.1-2.4,0.1-3.6c0.2-0.2,0.5-0.2,0.5-0.4c0.3-0.8,0.7-1.6,0.7-2.4c0-0.5-0.9-1.4-1.3-1.3
			c-0.7,0.1-1.5,0.7-1.8,1.3C387.3,73.9,386.9,75.4,386.3,77.1z M398.6,77.1c-0.6-1.6-1-3.2-1.7-4.5c-0.4-0.9-1.1-2.4-2.5-1.2
			c-1.2,1-1.1,2.1-0.1,3.3c0.6,0.8,1.2,1.9,1.2,2.9c0,0.6-1,1.2-1.5,1.9c-1,1.2-0.8,2.4,0.4,3.1c0.4,0.3,1.9-0.3,2.2-0.9
			C397.5,80.3,398,78.7,398.6,77.1z M351.4,77c0.7,1.7,1.3,3.4,2.1,4.8c0.3,0.5,1.3,0.6,1.9,0.9c0.3-0.9,0.7-1.8,0.9-2.8
			c0-0.3-0.6-0.8-1-1.1c-1.4-1.3-1.4-2.6,0-3.9c0.4-0.4,1-0.8,1-1.2c-0.1-0.9-0.5-1.7-0.8-2.6c-0.7,0.2-1.7,0.3-2,0.8
			C352.7,73.6,352.1,75.3,351.4,77z M375,96.3c-0.9,2.2-1.9,4.2-2.7,6.2c-0.3,0.7,0.1,1.7,0.2,2.6c0.7-0.1,1.3-0.1,2-0.2
			c0.3,0,0.5-0.1,0.8-0.1c0.7,0.1,1.5,0.1,2.2,0.2c0-0.9,0.3-2,0-2.8C376.9,100.3,375.9,98.5,375,96.3z M405.4,84.8
			c-2.7,1.5-4,4.4-3,7.1c0.2,0.6,1,1,1.6,1.5c0.2-0.8,0.9-1.8,0.6-2.4c-0.6-1.4-0.8-2.4,0.7-3.2C406.9,86.8,406.6,85.8,405.4,84.8z
			 M344,84.9c0.1,0.9-0.1,2.2,0.3,2.5c1.8,1.1,2.1,2.1,0.9,3.9c-0.2,0.4,0.5,1.3,0.7,2c0.5-0.4,1.3-0.6,1.5-1.2
			C348.7,89.5,347.6,86.6,344,84.9z M408.9,85.1c-0.4,1.3-1.2,2.3-0.9,2.8c1,1.7,0.9,2.9-0.9,3.9c-0.4,0.2-0.2,1.4-0.2,2.2
			c0.6-0.1,1.5,0,1.9-0.4C411,91.7,411.2,88.3,408.9,85.1z M340.7,85.7c-1.8,2.5-1.7,5.5,0.3,7.5c0.5,0.5,1.4,0.5,2.2,0.7
			c-0.2-0.8-0.1-2-0.6-2.4c-1.3-1-1.6-1.8-0.7-3.2C342.7,87.1,342.1,86.2,340.7,85.7z M357.6,74.9c-0.9,1-1.4,1.6-2,2.3
			c0.7,0.5,1.4,1.4,2,1.3c0.7-0.1,1.3-1,2-1.5C359.1,76.4,358.5,75.8,357.6,74.9z M392.2,79.2c1-0.9,1.6-1.5,2.2-2.1
			c-0.6-0.5-1.3-1.5-1.9-1.5c-0.7,0-1.4,0.9-2.2,1.4C390.9,77.6,391.4,78.2,392.2,79.2z"/>
		<path d="M358.6,140c-6.7-5.7-14.5-5.2-22.4-3.9c-10.1,1.6-20,0.7-29.7-2.7c-17-5.9-19.5-23-14.6-34.3c1.2-2.8,2.8-5.6,4.7-8
			c5.9-7.3,13.3-12.9,20.8-18.8c1.3,1.5,2.4,2.8,3.8,4.4c-3.6,2.9-6.9,5.7-10.3,8.4c-6.8,5.3-11.8,11.9-13.7,20.4
			c-1.9,8.3,0.9,15.2,8.5,19c9.6,4.9,19.7,7.1,30.3,2.5c2.3-1,4.7-1.5,7.2-2c4.5-0.8,8.1,0.9,10.5,4.6c2.1,3.1,3.7,6.5,5.5,9.8
			C359,139.7,358.8,139.9,358.6,140z"/>
		<path d="M428.9,76.8c1.2-1.5,2.3-2.9,3.7-4.5c3.8,3.1,7.5,6,11,9c4.8,4.2,9.6,8.5,12.9,14.2c5.5,9.7,5.1,22.1-1.3,30.1
			c-4.2,5.2-10.1,7.8-16.4,9.4c-9,2.3-18.2,2.4-27.4,0.9c-7.1-1.1-14-0.8-20.3,4.6c1.8-5,3.7-9.2,7.1-12.6c3.1-3.1,6.8-3.4,10.7-2.4
			c4.4,1.2,8.7,3.4,13.2,3.8c9.6,0.9,18.9-1.1,26.5-7.6c5.6-4.8,5.7-11.3,3.9-17.9c-1.9-6.8-5.8-12.4-11.2-16.9
			C437.2,83.5,433.1,80.2,428.9,76.8z"/>
		<path d="M373.1,175.2c-0.5-0.2-0.7-0.2-0.9-0.3c-5.4-2.2-7.4-5.8-7.3-12.1c0.2-10.6-2.8-20.7-7.6-30.2c-2.2-4.3-5.3-7.9-10.4-9.1
			c-1.6-0.4-3.3-0.3-4.9-0.3c-6.8,0-12.1-5.2-12.2-12c-0.1-6.5,1.4-12.5,5.3-18.2c0.6,1.7,0.9,3.1,1.6,4.4c1.5,3.1,3.9,5.3,7.2,6.5
			c2.4,0.9,3.1,2.6,2.1,5c-0.6,1.4-1.2,2.7-1.8,4.1c-0.7,1.7-0.5,3.3,0.9,4.6c1.4,1.3,2.8,0.7,4.2,0c0.5-0.2,0.9-0.5,1.4-0.7
			c2-0.7,3.3,0.4,3,2.5c-0.1,1-0.6,2-0.3,2.9c0.3,0.8,1.6,2,2,1.8c1.8-0.6,2.7,0.6,4,1.2c2,0.8,4.2,1.1,6.5,1.6
			c-0.2,0.2-0.4,0.7-0.8,1.1c-2.3,2.9-3.5,6.2-3.5,9.8c0,5.4,2.1,8.6,7.2,10.5c3.6,1.3,5.1,3.7,5.5,7.4
			C374.8,162.3,374.2,168.6,373.1,175.2z"/>
		<path d="M377,175.3c-1.3-7.4-2-14.4-0.7-21.6c0.5-3.1,2.6-4.4,5.2-5.3c4.9-1.7,7-4.7,7.1-11.1c0-3.2-1.2-6.2-3.1-8.8
			c-0.4-0.6-0.9-1.2-1.5-2c1.7-0.1,3.2-0.1,4.6-0.4c1.2-0.3,2.2-1.1,3.4-1.7c0.5-0.3,1.2-0.5,1.8-0.5c2.4,0.3,3.4-0.5,3.2-2.9
			c0-0.4-0.3-0.9-0.3-1.3c0.1-0.9,0.1-2.2,0.7-2.6c0.6-0.4,1.8-0.2,2.7-0.1c0.5,0.1,0.9,0.6,1.4,0.7c1.2,0.1,2.9,0.4,3.5-0.2
			c0.9-0.8,1.4-2.5,1.3-3.8c-0.1-1.5-1-3-1.7-4.4c-1.4-2.9-0.9-4.4,2.1-5.6c4.7-1.9,7.2-5.6,8.3-10.9c0.6,0.8,1,1.3,1.4,1.8
			c3.3,6,5.1,12.3,3.7,19.1c-1.2,5.7-6,9.5-11.8,9.2c-6.8-0.4-11.4,2.8-14.6,8.4c-4.2,7.1-6.3,15-7.5,23.1c-0.7,4.6-0.6,9.3-1,13.9
			c-0.1,1-0.7,2.1-1.4,2.7C381.5,172.7,379.3,173.9,377,175.3z"/>
		<path d="M287.3,86.3c3.3,1.3,5.1,0.6,6.4-2.5c1.1-2.5,1.9-5.1,2.8-7.6c3.3-8.9,9.8-13.2,18.8-12.2c7.6,0.9,13.7,7.8,14.8,16.4
			c1.1,9.1-1.4,17.4-6.1,25c-4.1,6.4-8.7,12.5-13.2,18.7c-0.4,0.5-1.6,0.8-2.2,0.6c-1.8-0.7-3.4-1.8-5.5-2.9
			c1.8-2.2,3.4-4.2,4.9-6.2c4.1-5.7,8.4-11.2,12.1-17.2c3.4-5.6,5-12,3.4-18.7c-1.9-7.7-8.9-12.1-15.6-9.8c-3,1-5.3,3-6.8,5.7
			c-1.3,2.4-2.2,5-3.7,7.3c-1.5,2.2-3.2,4.4-5.3,6C290,90.2,287.6,88.9,287.3,86.3z"/>
		<path d="M462.7,86.2c-0.1,2.5-2.5,4-4.6,2.5c-2.1-1.5-3.9-3.7-5.4-5.9c-1.4-2-2.1-4.5-3.3-6.7c-2-3.7-4.9-6.3-9.3-6.9
			c-5.1-0.6-9.6,1.9-12.1,6.6c-2.8,5.3-2.4,10.8-0.7,16.3c2.5,7.9,7.5,14.4,12.6,20.8c2.2,2.8,4.4,5.5,7,8.7
			c-2.2,1.2-4.1,2.3-6.1,3.3c-0.3,0.2-1.2-0.2-1.5-0.6c-6.1-8.4-13.1-16.2-17-26.1c-2.8-7.1-3.9-14.4-1.5-21.9
			c2.5-7.8,8.3-12.3,16.2-12.5c7.4-0.2,13.4,4.2,16.2,11.8c1.1,2.8,1.9,5.7,3.2,8.4C457.9,87,459.6,87.6,462.7,86.2z"/>
		<path d="M330.1,170.2c0,2.4,0.1,4.7-0.1,6.9c0,0.5-0.9,1.4-1.4,1.5c-16.5,0.8-32.3-8.8-35.2-27c-1.2-7.6,0.8-14.5,4.2-21.3
			c2.2,1.3,4.4,2.5,6.7,3.8c-3.5,8.8-4.4,17.7,1.3,26C311.4,168.5,320,170.8,330.1,170.2z"/>
		<path d="M445.6,134.1c2.3-1.3,4.4-2.5,6.5-3.8c7,11.7,6.5,25.9-2.6,36.7c-7.2,8.6-16.9,11.7-27.8,11.6c-1.3,0-1.9-0.4-1.9-1.9
			c0.1-1.9,0.1-3.8,0.1-5.7c0-0.3,0.1-0.6,0.2-0.9c9.7,0.6,18.3-1.6,24.1-10C450,151.9,449.2,143,445.6,134.1z"/>
		<path d="M378.6,180.6c2.3-1.3,4.6-2.7,7.1-4.2c1.1,2.9,1.8,5.5,3,7.8c1.7,3.2,3.4,6.6,5.8,9.4c3.4,4.1,7.6,4.3,12.1,1.4
			c0.4-0.3,1.1-0.5,1.6-0.3c2.4,0.9,4.7,1.9,7,2.9c-1.4,4.7-6.8,9-11.6,9.4c-6.5,0.6-11.4-2.1-15.2-7.1c-2.8-3.7-5.6-7.4-6.6-12.2
			C381.1,185.4,379.8,183.3,378.6,180.6z"/>
		<path d="M334.7,197.7c2.4-1,4.7-2,7-2.9c0.5-0.2,1.3-0.2,1.6,0.1c4.4,3.7,9.9,1.9,13.2-2.3c3.2-4.1,5.1-8.8,6.8-13.7
			c0.2-0.6,0.4-1.3,0.8-2.4c2.5,1.4,4.8,2.7,7.2,4.1c-3.3,7.8-5.5,15.7-11.6,21.7C351.6,210.3,339,208.2,334.7,197.7z"/>
		<path d="M361.4,180.6c-0.6,1.5-1,2.7-1.5,3.9c-0.2,0.5-0.8,1.1-1.2,1.1c-4.9,0.6-8.8,3.4-13,5.5c-3.8,1.9-7.7,4-11.8,5.1
			c-11.4,3-22.2-7-20.3-18.4c2.2,0.5,4.3,1,6.5,1.6c0.5,0.1,0.9,0.9,1,1.5c1,7.2,7.9,9.8,13.7,7.6c5.2-2,10.3-4.4,15.4-6.4
			C353.6,180.6,357.3,180,361.4,180.6z"/>
		<path d="M388.4,180c3.8,0.6,7.2,0.7,10.2,1.7c4.8,1.6,9.4,3.9,14.2,5.8c2.1,0.8,4.3,1.5,6.5,1.6c4.8,0.3,8.2-2.6,9.5-7.4
			c0.2-0.9,0.8-2.1,1.5-2.3c1.9-0.7,4-1.1,6.3-1.6c0.4,3.5-0.1,6.8-1.6,9.9c-3.7,7.5-11.8,11-20.3,8.2c-3.5-1.1-6.7-3-10-4.6
			c-4.3-2.2-8.3-5-13.2-5.6c-0.4,0-0.9-0.5-1.1-1C389.7,183.4,389.2,182.1,388.4,180z"/>
		<path d="M392.2,143.2c3-4,8.4-5.7,13.2-4.1c5.3,1.7,9.8,4.9,14.1,8.4c5.6,4.6,10.7,9.5,13.7,16.3c0.4,0.9,0.8,1.8,1.4,3.2
			c-2.5,0.6-4.8,1.3-7.1,1.7c-0.4,0.1-1.2-0.7-1.5-1.3c-4.8-9.6-12.4-16.2-21.6-21.2C400.6,144.2,396.6,143,392.2,143.2z"/>
		<path d="M357.7,142.8c-15.2,2.2-25.7,10.8-33.1,23.6c-1.2,2.1-2.3,2.6-4.4,2c-1.5-0.5-3-0.9-5-1.6c1.7-3.1,3-6.1,4.9-8.6
			c5.7-7.6,12.9-13.5,21.4-17.9c5.5-2.9,10.8-2.5,15.5,1.7C357.3,142.3,357.6,142.6,357.7,142.8z"/>
		<path d="M354,58.6c-1.2,2.6-2.8,5.2-3.8,8.1c-1.2,3.3-2.8,5.8-6.5,6.8c-3.4,0.9-5.6,3.4-7.1,6.9c-1.3-2.8-1-5.4-0.2-7.9
			c0.5-1.5,1-3.1,1.9-4.3c2.6-3.6,4-7.7,5.1-12c1-3.6,2.9-6.7,5.7-9.1c0.2,2.3-0.2,4.9,0.7,6.8C350.6,55.8,352.7,57.2,354,58.6z"/>
		<path d="M395.2,58.5c5.4-2.7,6.6-5.1,5.3-11.9c0.8,0.8,1.3,1.2,1.8,1.7c2.5,2.6,3.7,5.9,4.9,9.3c1.2,3.4,2.7,6.7,4.3,9.9
			c2,3.8,3.7,7.6,2.5,12c-0.1,0.2-0.2,0.4-0.4,0.9c-1.8-4.4-5.3-6.3-9.3-7.8c-1.5-0.6-2.8-2.5-3.6-4.1
			C399.1,64.9,398.3,61.1,395.2,58.5z"/>
		<path d="M335.8,155c0.6,3,1.4,5.9,1.8,9c0.7,6.7,1.1,13.4,1.6,20c0,0.5-0.2,1.3-0.6,1.5c-2,0.9-4.1,1.7-6.6,2.6
			c-0.2-2.1-0.4-3.7-0.5-5.2c-0.5-7.3-0.9-14.5-1.3-21.8c0-0.5,0.1-1.3,0.5-1.6c1.4-1.6,2.9-3,4.3-4.5
			C335.4,154.9,335.6,154.9,335.8,155z"/>
		<path d="M417.9,188.1c-2.4-1-4.5-1.8-6.5-2.7c-0.3-0.1-0.6-0.9-0.6-1.3c0.7-8.3,1.5-16.6,2.4-25c0.1-1.4,0.8-2.7,1.5-4.8
			c1.8,2,3.3,3.6,4.7,5.3c0.3,0.3,0.4,1,0.4,1.5c-0.4,7.4-0.8,14.9-1.3,22.3C418.4,184.7,418.1,186.1,417.9,188.1z"/>
		<path d="M339.9,176.9c-0.2-2.6-0.3-5-0.6-7.4c-0.1-1.2,0.3-1.8,1.5-2.4c2.3-1.2,4.6-2.4,6.6-3.9c6-4.4,9.1-10.2,7.2-17.8
			c3.3-0.9,5.1-0.4,5.9,1.7c0.2,0.6-0.1,1.8-0.5,2.1c-5.8,4.3-6.7,10.2-5.5,16.8c0.3,1.3,0.2,2.2-0.9,3.2c-3.4,3.1-7.1,5.5-11.4,7.1
			C341.4,176.5,340.7,176.7,339.9,176.9z"/>
		<path d="M395.4,145c-0.9,10.8,2.4,16.5,12.5,21.4c2.4,1.2,3.2,2.5,2.7,5c-0.3,1.8-0.4,3.6-0.5,5.5c-4.6-1.1-8.4-3.5-12-6.3
			c-1.9-1.5-2.9-2.9-2.4-5.8c1.1-6.2-0.3-11.8-5.9-15.7c-0.4-0.3-0.7-1.2-0.6-1.4c0.6-0.9,1.2-2,2.2-2.4
			C392.6,144.8,394,145.1,395.4,145z"/>
		<path d="M361.2,149.8c0.8,2.9,1.6,5.1,0.1,7.8c-2.7,4.9-1.8,9.3,2.5,12.9c2,1.7,4.2,3.1,6.5,4.5c6.7,4.1,10.3,10.2,11.2,17.9
			c0.1,1-0.2,2-0.3,3c-0.2,0-0.4,0-0.7,0c-0.2-1.6-0.3-3.2-0.7-4.8c-1.7-7.6-7.3-11.6-13.6-15c-2.1-1.1-4.3-2.2-6.2-3.7
			c-5.9-4.7-6.6-14.7-1.6-20.3C359.1,151.4,360.1,150.7,361.2,149.8z"/>
		<path d="M433.9,56.1c-0.8,2-2.6,2.6-4.5,1.5c-1.5-1-2.7-2.4-4-3.6c-0.6-0.6-1-1.5-1.7-1.8c-1.2-0.5-2.8-1.1-3.7-0.6
			c-1.1,0.6-2.3,2.3-2.3,3.4c0,1.8,0.7,3.9,1.8,5.4c1.6,2.3,3.7,4.3,5.7,6.5c-1,1.1-2,2.3-3,3.5c-5.4-3-9.7-11.2-8.9-17.2
			c0.4-3.2,2.1-5.5,5.2-6.5c2.9-1,5.1,0.4,7,2.6c0.6,0.7,1.3,1.5,1.7,2.4C428.6,54.4,430,57.1,433.9,56.1z"/>
		<path d="M328.2,70.8c-1.3-1.5-2.3-2.7-3.5-4.1c1.5-1.4,3.1-2.6,4.3-4.2c1.3-1.7,2.5-3.6,3.3-5.6c0.9-2.2-0.3-4.5-2.1-5.4
			c-2.1-1-3.6,0.3-4.9,1.7c-1.2,1.2-2.2,2.8-3.6,3.7c-1.1,0.7-2.6,0.9-4,1c-0.5,0-1.1-0.7-1.7-1.5c4.4,0.8,5.6-2.4,7.1-5
			c0.4-0.6,0.8-1.3,1.3-1.8c1.9-2.3,4.1-3.8,7.3-2.7c2.9,0.9,5,3.8,5.1,7c0.2,4.7-1.4,8.7-4.3,12.3
			C331.2,67.7,329.8,69.1,328.2,70.8z"/>
		<path d="M377.5,179.6c-0.4-0.5-0.9-1.1-1.6-1.9c1.9-1.2,3.6-2.4,5.3-3.6c1.9-1.3,3.9-2.6,5.6-4.2c3.7-3.5,4.5-7.6,2-12.1
			c-1.5-2.7-1.1-5.1,0-8c4.1,2.4,5.6,6.2,6,10.5c0.6,6.6-2.6,11.2-8.2,14.3C383.6,176.4,380.7,178,377.5,179.6z"/>
		<path d="M329.3,146.7c-1.8,1.6-3.2,2.9-4.6,4.2c-1.5-0.8-2.8-1.8-4.2-2.2c-1.5-0.4-3.2-0.5-4.6-0.1c-3.9,1-5.1,4-3.5,7.6
			c0.3,0.7,0.1,1.5,0.2,2.3c-0.8-0.2-1.8-0.1-2.4-0.6c-2.8-2.1-2.9-7-0.2-10.2c3.4-3.9,7.7-4.9,12.5-3.7
			C324.7,144.5,326.8,145.7,329.3,146.7z"/>
		<path d="M425.2,150.8c-1.3-1.2-2.7-2.4-4.1-3.7c5.2-4.6,13.5-4.7,18-0.3c2.5,2.4,3.6,5.4,2.3,8.8c-0.4,0.9-1.1,1.8-1.9,2.5
			c-0.5,0.4-1.5,0.3-2.2,0.4c0-0.7-0.2-1.6,0.2-2.1c1.3-2,1.3-3.9-0.3-5.8c-1.8-2.1-4-3-6.7-2.2
			C428.9,148.9,427.2,149.9,425.2,150.8z"/>
		<path d="M445,116.7c-1.3-1.1-2-1.8-1.2-3.7c1.5-3.5,0.3-6.7-3-8.8c-1.5-0.9-3.1-1.5-4.7-2.3c-2.1-1.1-3.9-2.4-4.6-4.8
			c-0.8-2.9,1.2-6,4.2-6.3c3-0.3,6.3,1.7,7.4,4.8c-1.1-0.7-1.9-1.2-2.6-1.6c-1.6-1.1-3.3-2.5-5.3-1.3c-0.9,0.5-1.7,1.8-1.8,2.8
			c-0.2,2.3,1.6,3.4,3.4,4.3c1.2,0.6,2.5,1.1,3.7,1.6C447,104.1,449,110.9,445,116.7z"/>
		<path d="M306.9,96c0.8-2.9,3.6-4.8,6.4-5c2.3-0.1,4.1,1,5,3.1c0.9,2.3,0.3,4.6-2,6.4c-1.5,1.1-3.2,2-4.9,2.7
			c-4,1.7-7.2,5.2-4.8,10.7c0.3,0.7-0.5,1.9-0.8,3c-3.7-2.8-3.5-11.4,1.5-14.2c1-0.6,2.2-1,3.3-1.5c1.2-0.6,2.5-1,3.7-1.7
			c2.5-1.5,3.3-3.6,2.2-5.4c-1.2-1.9-3.2-2.1-5.8-0.6C309.4,94.1,308.4,94.9,306.9,96z"/>
		<path d="M391.3,210.6c-4.5,0.9-7.9-1.4-10.9-4.5c-4.6-4.6-5.8-12-2.8-17.9c0.4,1.2,0.8,2.1,1,3c0.6,2.7,1.2,5.5,1.8,8.2
			c1.2,5,4.3,8.3,9.4,9.6c0.6,0.2,1.2,0.5,1.8,0.7C391.5,210.1,391.4,210.3,391.3,210.6z"/>
		<path d="M372.3,188c3.4,6.2,1.8,14-3.4,18.9c-3.7,3.4-7.9,4.7-10.7,3c1-0.3,1.7-0.6,2.4-0.8c4.1-1.2,7.1-3.7,8.4-7.8
			c0.9-2.7,1.3-5.5,2-8.2C371.4,191.6,371.8,190,372.3,188z"/>
		<path d="M405,163.4c-1.2-0.9-2.2-1.7-2.7-2.1c1.5-4.3,2.9-8.3,4.3-12.3c3,1.1,3.3,1.5,2.8,4.8C408.8,157.3,408,160.6,405,163.4z"
			/>
		<path d="M348.2,160.7c0,0.1,0,0.2-0.1,0.2c-2.9,2.9-4,2.9-5.5-0.8c-1.1-2.6-1.8-5.6-2.1-8.4c-0.1-0.9,1.8-2.1,2.8-3.1
			c1.5,4.4,2.9,8.3,4.3,12.3C347.8,160.8,348,160.7,348.2,160.7z"/>
		<path d="M313.4,123.1c0.7-2,1.5-2.7,3.7-1.8c3,1.3,6.3,1.9,9.5,3c1.9,0.6,3.8,1.4,5.7,2.4c-1.9,1.1-3.5,1.5-5.6,0.7
			c-3.6-1.3-7.3-2.2-11-3.3C314.9,123.9,314.2,123.4,313.4,123.1z"/>
		<path d="M417.8,126.3c2.4-0.8,4.8-1.7,7.2-2.4c2.6-0.9,5.4-1.4,7.9-2.5c2.1-1,3-0.3,3.8,1.9c-2.5,0.9-4.9,1.8-7.4,2.6
			c-2.4,0.7-4.7,1.5-7.2,2c-1.4,0.2-2.8-0.3-4.3-0.5C417.8,127,417.8,126.6,417.8,126.3z"/>
		<path d="M372,217.9c1.6-2.2,1.1-4.1-0.3-6c-1.2-1.7-0.7-3.5,0.1-5.2c1-2,2.1-3.9,3.2-6c1.2,2.5,2.6,4.9,3.6,7.5
			c0.4,1.1,0.1,2.7-0.4,3.8c-1.4,2.8-1.5,3.3-0.3,5.8c-0.2,0.1-0.3,0.3-0.5,0.4c-0.5-0.6-1.3-1.2-1.4-1.9c-0.1-1.2,0-2.6,0.4-3.7
			c1.4-3.6,1.3-4.6-1.4-7.5c-2.6,2-3,4-1.9,7c0.5,1.3,0.6,2.9,0.6,4.4c0,0.6-0.8,1.1-1.3,1.7C372.4,218.1,372.2,218,372,217.9z"/>
		<path d="M375,148c-4-5.3-4-8.2,0-12.3C379,139.8,379,142.7,375,148z"/>
		<path d="M368.8,195.8c-1-5.1,1.2-9.5,3.6-14c0.6,0.5,1.1,0.9,1.4,1.2c-1.1,2.3-2.3,4.3-3.1,6.4c-0.7,2.1-0.9,4.3-1.3,6.5
			C369.2,195.9,369,195.9,368.8,195.8z"/>
		<path d="M387.6,167c-2-2.3-0.6-4.6-0.7-6.7C389.5,162.2,389.7,163.6,387.6,167z"/>
		<path d="M363.2,160.2c-0.2,2.2,1.4,4.5-0.7,6.6C360.4,164.1,360.6,162.4,363.2,160.2z"/>
		<path d="M412.2,140.7c-1.4-0.7-2.4-1.3-3.4-1.8c0.7-2.3,1.4-2.5,4.5-1.3C412.9,138.5,412.6,139.4,412.2,140.7z"/>
		<path d="M337.9,140.7c-0.4-1.1-0.8-2-1.1-2.9c2.5-1.5,3.7-1.2,4.5,1.1C340.3,139.4,339.2,140,337.9,140.7z"/>
		<path d="M375,206.7c1.5,2.5,1.5,3.7-0.1,5.8C373.6,210.6,373.6,208.8,375,206.7z"/>
	</g>
	<g>
		<path d="M483.1,382.7c0.2,58.6-48.1,109.3-110.8,107.9c-58.1-1.3-107.2-49.8-105.1-111.9c1.8-56.3,48.6-105.5,110.9-104
			C436.3,276.1,483.2,324,483.1,382.7z M277.4,382.5c-0.4,53.6,43.7,97.4,96.7,97.9c54.1,0.5,98.1-43.4,98.9-96.4
			c0.7-54.6-43.6-98.7-96.6-99.3C321.6,284.2,277,328.9,277.4,382.5z"/>
		<path d="M374.9,473.8c-49.9,0-91-41.1-91-91c0-50.5,41-91.4,91.5-91.4c50,0,90.8,41.2,90.8,91.7
			C466.2,432.9,425,473.8,374.9,473.8z M359,331c-0.3,0-0.5-0.1-0.8-0.1c0-0.7-0.3-1.7,0.1-2.2c0.6-0.8,1.5-1.3,2.3-1.9
			c1.1-0.7,1.8-1.7,1.1-2.9c-0.7-1.3-2-1.4-3-0.7c-1.2,0.8-2.4,1.9-3.1,3.1c-0.9,1.6-1.5,3.4-2.1,5.1c-1.1,2.8-2.8,4.8-5.7,6
			c-1.6,0.7-3.2,1.9-4.4,3.2c-3,3.5-3.2,7.7-2.5,12c0.8,4.7,3.2,8.1,8.1,9.3c0.5,0.1,1,1,1.2,1.6c0.7,2.3,1.4,4.6,3.7,5.9
			c0.9,0.5,2,0.5,3,0.8c0-0.7,0-1-0.2-1.1c-2.4-1.8-1.7-6.5,0.3-8.1c1.9-1.5,4.8-0.9,6.8,1.6c2.5,3.1,3.9,6.7,4.1,10.7
			c0.2,3.4-2.1,5-5.2,3.5c-1.3-0.6-2.4-1.8-3.7-2.9c-0.7,2.1-0.5,4.2,0.9,5.9c2.5,3,5.7,2.5,9.7,1.3c-0.7,1.9-1.1,3.3-1.7,4.5
			c-0.8,1.6-2,3-2.6,4.6c-1.4,3.6-0.9,7,1.5,10c0.9,1.1,2,2.3,4,1.6c-0.3-0.7-0.7-1.2-0.8-1.8c-0.2-1.4-0.9-3-0.4-4.1
			c1.5-3.4,3.5-6.6,5.4-10c1.5,2.2,2.7,3.9,3.8,5.7c1.9,2.9,3.3,5.9,1.1,9.3c-0.2,0.2-0.1,0.6-0.2,1.4c1.1-0.4,2.1-0.5,2.5-1
			c1.1-1.2,2.2-2.5,2.8-3.9c1.7-4.3,0.3-8.2-2.5-11.6c-1.1-1.4-1.6-2.8-1.1-4.5c4.2,1.3,7.2,0.8,9-1.4c1.3-1.7,1.6-4.3,0.5-6.2
			c-0.3,0.5-0.6,0.9-0.9,1.4c-1.2,1.7-4,2.7-5.6,2c-2.1-0.9-2.3-2.9-1.9-4.7c0.6-2.5,1.3-5,2.5-7.3c0.8-1.6,2.1-3.1,3.6-4.1
			c2.8-1.9,5.5-0.6,6.4,2.6c0.7,2.4-0.2,4.3-1.5,6.4c1.3-0.2,2.8-0.3,3.5-1.1c1.3-1.6,2.3-3.5,3-5.4c0.4-1.1,0.7-1.7,1.9-2
			c3.1-0.8,5.3-2.7,6.5-5.7c1.6-4,1.8-8,0.4-12c-1.1-3.1-3.1-5.5-6.3-6.6c-2.9-1-4.6-3.1-5.6-5.8c-0.7-1.7-1.2-3.6-2.1-5.1
			c-0.8-1.3-2.1-2.5-3.4-3.3c-0.6-0.4-1.9,0.4-2.8,0.7c0.3,0.9,0.5,2,1.1,2.8c0.6,0.8,1.7,1.1,2.4,1.9c0.8,0.8,0.9,1.8-0.7,2.5
			c0.7-1.9-0.5-2.2-1.7-2.7c-3.4-1.5-4-3.8-1.8-6.8c-0.3-0.1-0.5-0.3-0.7-0.3c-4.1-0.7-7,2.6-5.7,6.6c0.5,1.7,1.6,3.2,2.1,4.9
			c1,3.2,0.3,6.3-0.5,9.5c-0.6,2.3-0.5,4.7,1.5,6.4c1.8,1.5,3.7,0.9,5.8-0.7c-1,2.9-3,2.8-5,2.7c-0.2,2.9,0.6,6-2,8.3
			c-0.1-0.2-0.2-0.3-0.2-0.3c0-0.2,0-0.4,0-0.6c1.3-3.3,1.1-6.4-0.8-9.4c-1.5-2.3-1.5-4.8-0.8-7.5c0.5-2,0.6-4,1-6
			c-3,2.9-7.1,5.3-3.5,10.4c-1.8-0.6-2.3-1.6-2.5-3c-0.4-2.6,0.7-4.6,2.5-6.4c1.4-1.4,2.5-3.1,1.6-5.1c-1.2-2.9-1.9-5.7-0.2-8.5
			c-4.2-2.2-5.5-5.2-3.9-8.2c1.4-2.6,5.2-3.5,8.2-1.6c-1.2,0-2.1,0-2.9,0c-1.9,0-3.6,0.7-4.1,2.5c-0.3,1.2,0,2.9,0.7,3.9
			c1,1.7,3,1.6,4.6,1c2.4-0.9,4.6-0.5,6.8,0.4c3.1,1.3,6.2-0.2,7.3-3.4c1-3.2-0.3-6.7-3.8-8.4c-11.9-6-23.9-6-35.8-0.1
			c-2.1,1-3.6,2.8-4.1,5.1c-0.5,2.2-0.1,4.3,1.7,5.8c1.4,1.3,3.1,2.1,5.1,1.3c2.6-1.1,5.1-1.6,7.9-0.6c2.5,0.9,4.8-0.7,5.2-2.9
			c0.4-2.4-1.3-4.4-4-4.6c-1-0.1-1.9,0-3.5,0c3.1-1.8,6.8-1.1,8.1,1.3c0.6,1.1,1.1,2.8,0.7,3.8c-0.8,1.8-2.4,3.4-3.8,5.3
			c0.9,2.8,1.1,3.9-0.1,6.5c-1.2,2.6-0.6,4.6,1.2,6.5c0.8,0.9,1.6,1.9,2.1,3c1.2,2.7,0.3,5.4-1.9,6c3.3-4.9-0.8-7.2-3.6-10.1
			c0.1,1.9,0.1,3.8,0.6,5.5c1,3.2,0.6,6-1.1,8.8c-1.5,2.4-1.5,5-0.7,7.7c0.2,0.5,0.3,1.1,0.5,2.2c-2.9-2.7-2.1-5.8-2.4-8.7
			c-2.1,0.3-3.9,0.1-4.7-2.3c1.6,1.4,3.3,1.7,5.1,0.7c1.8-1.1,2.3-3,2.2-5c-0.1-0.9-0.2-1.9-0.5-2.8c-1.1-4-1.2-7.8,1.2-11.4
			c0.4-0.7,0.7-1.5,0.9-2.3c0.3-1.8,0.4-3.6-1.3-4.9c-1.6-1.2-3.3-1.8-5.4-0.9c2.2,2.8,1.6,5.3-1.6,6.7
			C359.7,328.8,358.3,329.1,359,331z M360.3,396.1c0.2-0.1,0.3-0.3,0.5-0.4c-1.7-3-3.2-6-5-8.9c-2.2-3.4-5.5-4.9-9.5-4.2
			c-2.2,0.4-4.4,0.9-6.5,1.8c-9.6,4.1-18.7,2.1-27.4-2.3c-6.9-3.5-9.4-9.7-7.7-17.2c1.7-7.8,6.3-13.7,12.4-18.5
			c3.1-2.4,6.1-5,9.3-7.6c-1.2-1.4-2.3-2.6-3.4-4c-6.8,5.4-13.6,10.5-18.9,17c-1.7,2.2-3.2,4.7-4.2,7.2
			c-4.4,10.2-2.1,25.8,13.3,31.1c8.7,3,17.7,3.9,26.8,2.4C347.1,391.5,354.2,391,360.3,396.1z M423.8,338.8
			c3.8,3.2,7.5,6.1,11.1,9.1c4.9,4.1,8.4,9.1,10.1,15.3c1.6,6,1.5,11.9-3.6,16.3c-6.9,5.9-15.2,7.7-24,6.9
			c-4.1-0.4-7.9-2.4-11.9-3.5c-3.5-0.9-6.9-0.7-9.7,2.1c-3,3.1-4.8,6.9-6.4,11.4c5.7-4.9,12-5.2,18.4-4.2c8.3,1.4,16.6,1.3,24.8-0.8
			c5.7-1.5,11-3.7,14.9-8.5c5.8-7.2,6.2-18.4,1.2-27.2c-2.9-5.2-7.3-9-11.6-12.9c-3.2-2.8-6.5-5.4-10-8.2
			C425.9,336.2,424.9,337.5,423.8,338.8z M373.3,428c1-5.9,1.6-11.7,0.9-17.5c-0.4-3.4-1.7-5.5-5-6.7c-4.6-1.7-6.6-4.7-6.5-9.5
			c0-3.3,1.1-6.3,3.2-8.9c0.3-0.4,0.6-0.8,0.7-1c-2-0.5-4.1-0.7-5.9-1.5c-1.2-0.5-2-1.6-3.6-1.1c-0.4,0.1-1.6-0.9-1.8-1.7
			c-0.3-0.7,0.1-1.7,0.3-2.6c0.3-1.9-0.9-2.9-2.7-2.2c-0.4,0.2-0.9,0.4-1.3,0.6c-1.3,0.6-2.6,1.2-3.8,0c-1.2-1.2-1.5-2.6-0.8-4.1
			c0.5-1.3,1.1-2.5,1.6-3.7c0.9-2.2,0.3-3.7-1.9-4.5c-3-1.1-5.1-3.1-6.5-5.9c-0.6-1.2-0.9-2.5-1.4-4c-3.5,5.1-4.9,10.6-4.8,16.4
			c0.1,6.1,4.9,10.8,11,10.9c1.5,0,3,0,4.5,0.3c4.6,1,7.4,4.3,9.4,8.2c4.3,8.6,7.1,17.8,6.9,27.3c-0.1,5.7,1.7,8.9,6.6,10.9
			C372.7,427.8,372.9,427.8,373.3,428z M376.9,428.2c2.1-1.3,4.1-2.4,5.8-3.8c0.7-0.5,1.2-1.6,1.3-2.5c0.4-4.2,0.3-8.5,0.9-12.6
			c1.1-7.3,3.1-14.4,6.8-20.9c2.9-5,7.1-7.9,13.2-7.6c5.3,0.3,9.6-3.2,10.7-8.3c1.3-6.2-0.3-11.9-3.3-17.3c-0.3-0.5-0.7-0.9-1.2-1.7
			c-0.9,4.7-3.2,8.1-7.5,9.8c-2.6,1.1-3.1,2.4-1.9,5.1c0.6,1.3,1.4,2.6,1.5,4c0.1,1.1-0.4,2.7-1.2,3.4c-0.6,0.6-2.1,0.2-3.2,0.2
			c-0.4,0-0.8-0.5-1.3-0.6c-0.8-0.1-1.9-0.3-2.4,0.1c-0.5,0.4-0.5,1.5-0.6,2.4c0,0.4,0.2,0.8,0.2,1.2c0.2,2.2-0.7,2.9-2.9,2.7
			c-0.5-0.1-1.1,0.2-1.6,0.4c-1,0.5-2,1.2-3.1,1.5c-1.2,0.3-2.6,0.3-4.1,0.4c0.5,0.7,0.9,1.2,1.3,1.8c1.8,2.4,2.9,5.1,2.8,8
			c-0.1,5.8-2,8.5-6.4,10c-2.4,0.8-4.2,2.1-4.7,4.8C375.1,415.1,375.7,421.5,376.9,428.2z M295.6,347.5c0.3,2.4,2.4,3.6,4.3,2.2
			c1.9-1.4,3.5-3.4,4.8-5.4c1.3-2,2.1-4.4,3.3-6.6c1.4-2.5,3.4-4.3,6.1-5.2c6.1-2,12.5,1.9,14.2,8.9c1.5,6.1,0,11.8-3.1,16.9
			c-3.3,5.4-7.2,10.4-10.9,15.6c-1.3,1.9-2.8,3.6-4.4,5.7c1.9,1,3.4,2,5,2.7c0.5,0.2,1.6-0.1,2-0.5c4.1-5.6,8.3-11.1,12-16.9
			c4.3-6.8,6.6-14.3,5.5-22.6c-1-7.8-6.5-14.1-13.4-14.9c-8.1-0.9-14,2.9-17,11c-0.8,2.3-1.6,4.7-2.6,6.9
			C300.2,348,298.6,348.6,295.6,347.5z M454.4,347.4c-2.8,1.2-4.4,0.7-5.6-2c-1.1-2.5-1.9-5.1-2.9-7.7c-2.6-6.9-8-10.8-14.7-10.7
			c-7.1,0.2-12.4,4.2-14.7,11.3c-2.2,6.8-1.1,13.4,1.4,19.8c3.5,8.9,9.9,16,15.4,23.6c0.2,0.3,1,0.7,1.3,0.5
			c1.8-0.9,3.5-1.9,5.5-2.9c-2.3-2.9-4.3-5.4-6.3-7.9c-4.7-5.8-9.1-11.6-11.4-18.8c-1.6-5-1.9-9.9,0.6-14.7c2.2-4.3,6.4-6.6,11-6
			c3.9,0.5,6.6,2.9,8.4,6.2c1.1,2,1.7,4.2,3,6.1c1.3,2,2.9,4,4.8,5.4C452.2,351.1,454.4,349.7,454.4,347.4z M334.4,423.5
			c-9.1,0.5-16.9-1.5-22.1-9.2c-5.1-7.5-4.3-15.6-1.2-23.6c-2.1-1.2-4.1-2.3-6.1-3.5c-3.1,6.2-4.9,12.4-3.8,19.3
			c2.6,16.6,16.9,25.3,31.9,24.5c0.5,0,1.2-0.8,1.3-1.3C334.5,427.7,334.4,425.7,334.4,423.5z M439,390.8c3.2,8.1,4,16.1-1.2,23.6
			c-5.2,7.6-13,9.6-21.8,9.1c-0.1,0.3-0.2,0.6-0.2,0.9c0,1.7,0,3.4-0.1,5.1c-0.1,1.3,0.5,1.7,1.7,1.7c9.9,0.1,18.7-2.7,25.2-10.5
			c8.2-9.8,8.6-22.7,2.3-33.3C443,388.5,441,389.6,439,390.8z M378.4,433c1,2.4,2.3,4.3,2.8,6.5c1,4.3,3.5,7.7,6,11
			c3.4,4.5,7.9,7,13.8,6.4c4.3-0.4,9.3-4.2,10.5-8.5c-2.1-0.9-4.2-1.8-6.4-2.6c-0.4-0.2-1,0-1.4,0.3c-4,2.6-7.8,2.4-10.9-1.3
			c-2.1-2.5-3.7-5.5-5.2-8.5c-1.1-2.1-1.7-4.4-2.7-7C382.5,430.5,380.4,431.7,378.4,433z M338.6,448.4c3.8,9.5,15.2,11.4,22.6,4.1
			c5.5-5.4,7.5-12.6,10.5-19.7c-2.1-1.2-4.3-2.4-6.5-3.7c-0.3,1-0.5,1.6-0.7,2.2c-1.5,4.4-3.2,8.7-6.1,12.4c-3,3.8-8,5.5-12,2.1
			c-0.3-0.3-1-0.3-1.5-0.1C342.9,446.6,340.8,447.5,338.6,448.4z M362.7,432.9c-3.7-0.5-7,0-10.2,1.3c-4.7,1.9-9.3,4-14,5.8
			c-5.3,2-11.5-0.4-12.4-6.9c-0.1-0.5-0.5-1.2-0.9-1.3c-1.9-0.6-3.9-1-5.9-1.5c-1.8,10.4,8,19.4,18.3,16.7c3.7-1,7.2-2.9,10.7-4.6
			c3.8-1.9,7.4-4.4,11.8-5c0.4-0.1,0.9-0.6,1.1-1C361.9,435.4,362.2,434.2,362.7,432.9z M387.2,432.3c0.8,1.9,1.2,3.1,1.7,4.3
			c0.2,0.4,0.6,0.8,1,0.9c4.5,0.5,8.1,3.1,12,5.1c3,1.5,5.9,3.2,9.1,4.2c7.7,2.5,15.1-0.6,18.4-7.4c1.4-2.8,1.9-5.8,1.5-9
			c-2,0.5-3.9,0.8-5.7,1.4c-0.6,0.2-1.2,1.3-1.4,2.1c-1.1,4.3-4.2,6.9-8.6,6.7c-2-0.1-4-0.7-5.9-1.5c-4.3-1.7-8.5-3.8-12.9-5.2
			C393.7,433,390.6,432.9,387.2,432.3z M390.6,399c4-0.2,7.6,0.9,11,2.7c8.4,4.5,15.3,10.5,19.6,19.2c0.3,0.5,1,1.2,1.3,1.2
			c2.1-0.4,4.2-1,6.4-1.5c-0.5-1.3-0.9-2.1-1.2-2.9c-2.7-6.1-7.4-10.6-12.4-14.8c-3.9-3.2-7.9-6.1-12.8-7.6
			C398.2,393.9,393.3,395.4,390.6,399z M359.4,398.6c-0.1-0.1-0.4-0.5-0.6-0.7c-4.3-3.8-9.1-4.1-14.1-1.6c-7.6,4-14.2,9.3-19.3,16.2
			c-1.7,2.3-2.9,5-4.4,7.8c1.9,0.6,3.2,1,4.6,1.5c1.9,0.6,2.9,0.1,4-1.8C336.2,408.4,345.7,400.6,359.4,398.6z M356,322.3
			c-1.2-1.3-3.1-2.5-3.8-4.3c-0.8-1.8-0.5-4.1-0.6-6.2c-2.5,2.2-4.3,5-5.1,8.3c-1,3.9-2.3,7.5-4.7,10.8c-0.8,1.1-1.3,2.5-1.7,3.9
			c-0.7,2.3-1,4.6,0.2,7.1c1.3-3.2,3.4-5.4,6.5-6.2c3.4-0.9,4.8-3.2,5.9-6.2C353.5,327.1,354.9,324.7,356,322.3z M393.4,322.3
			c2.8,2.4,3.5,5.9,4.9,9c0.7,1.4,1.9,3.2,3.2,3.7c3.6,1.4,6.8,3.1,8.4,7.1c0.2-0.5,0.3-0.6,0.4-0.8c1.1-4-0.4-7.4-2.2-10.9
			c-1.5-2.9-2.8-5.9-3.9-8.9c-1.1-3.1-2.1-6.1-4.4-8.4c-0.4-0.4-0.9-0.8-1.6-1.5C399.3,317.6,398.3,319.9,393.4,322.3z M339.6,409.7
			c-0.2,0-0.4-0.1-0.7-0.1c-1.3,1.4-2.7,2.7-3.9,4.1c-0.3,0.4-0.5,1-0.4,1.5c0.4,6.6,0.8,13.2,1.2,19.8c0.1,1.4,0.2,2.8,0.4,4.7
			c2.2-0.9,4.1-1.6,5.9-2.4c0.3-0.1,0.5-0.9,0.5-1.3c-0.4-6.1-0.8-12.1-1.4-18.2C340.9,415.1,340.2,412.4,339.6,409.7z M413.9,439.7
			c0.2-1.8,0.4-3,0.5-4.3c0.4-6.7,0.8-13.5,1.2-20.2c0-0.4-0.1-1-0.3-1.3c-1.3-1.5-2.6-2.9-4.3-4.8c-0.6,1.9-1.2,3.1-1.4,4.4
			c-0.8,7.5-1.5,15.1-2.1,22.6c0,0.4,0.2,1,0.5,1.2C409.8,438.1,411.7,438.8,413.9,439.7z M343.3,429.6c0.8-0.2,1.4-0.4,2-0.6
			c3.9-1.4,7.3-3.7,10.4-6.4c1-0.9,1-1.7,0.8-2.9c-1.1-5.9-0.3-11.3,4.9-15.2c0.4-0.3,0.7-1.4,0.5-1.9c-0.7-1.9-2.3-2.3-5.3-1.6
			c1.7,6.9-1.1,12.1-6.5,16.1c-1.8,1.4-3.9,2.5-6,3.5c-1,0.5-1.4,1-1.3,2.2C342.9,425,343.1,427.2,343.3,429.6z M393.6,400.7
			c-1.3,0.1-2.6-0.1-3.6,0.3c-0.8,0.3-1.4,1.3-1.9,2.2c-0.2,0.2,0.2,1.1,0.5,1.3c5.1,3.5,6.4,8.7,5.3,14.3c-0.5,2.6,0.4,3.9,2.1,5.2
			c3.2,2.6,6.7,4.7,10.8,5.7c0.2-1.8,0.2-3.4,0.5-5c0.4-2.3-0.3-3.5-2.5-4.5C395.7,415.6,392.7,410.4,393.6,400.7z M362.6,405
			c-1,0.8-1.8,1.4-2.5,2.1c-4.5,5.1-3.9,14.2,1.5,18.4c1.7,1.3,3.7,2.3,5.6,3.3c5.8,3.1,10.8,6.7,12.3,13.6c0.3,1.4,0.4,2.9,0.6,4.3
			c0.2,0,0.4,0,0.6,0c0.1-0.9,0.4-1.9,0.3-2.8c-0.8-7-4.1-12.5-10.2-16.2c-2-1.2-4.1-2.5-5.9-4.1c-3.9-3.3-4.7-7.2-2.2-11.7
			C364,409.7,363.3,407.6,362.6,405z M428.4,320.1c-3.5,0.9-4.8-1.5-6.1-4c-0.4-0.8-1-1.5-1.5-2.2c-1.7-1.9-3.6-3.2-6.3-2.3
			c-2.8,0.9-4.4,3-4.7,5.9c-0.7,5.4,3.2,12.9,8.1,15.6c0.9-1.1,1.8-2.2,2.7-3.2c-1.8-2-3.7-3.8-5.1-5.9c-0.9-1.4-1.6-3.2-1.6-4.9
			c0-1.1,1.1-2.6,2.1-3.1c0.8-0.4,2.3,0.1,3.4,0.5c0.6,0.2,1,1.1,1.5,1.6c1.2,1.1,2.3,2.4,3.6,3.3C426,322.5,427.6,322,428.4,320.1z
			 M332.7,333.5c1.4-1.5,2.7-2.8,3.9-4.2c2.7-3.2,4.1-6.9,3.9-11.1c-0.1-3-2-5.5-4.6-6.4c-2.9-0.9-4.9,0.4-6.6,2.5
			c-0.4,0.5-0.9,1.1-1.2,1.7c-1.4,2.4-2.5,5.3-6.5,4.5c0.6,0.7,1.1,1.4,1.5,1.3c1.2-0.1,2.6-0.2,3.6-0.9c1.3-0.9,2.2-2.2,3.3-3.4
			c1.2-1.3,2.5-2.4,4.5-1.5c1.7,0.8,2.7,2.9,1.9,4.9c-0.7,1.8-1.8,3.5-3,5.1c-1.1,1.4-2.6,2.6-3.9,3.8
			C330.6,331,331.5,332.1,332.7,333.5z M377.3,432c2.8-1.5,5.6-2.9,8.2-4.4c5.1-2.8,8-6.9,7.5-13c-0.3-3.9-1.7-7.3-5.4-9.5
			c-0.9,2.6-1.3,4.7,0,7.2c2.3,4.1,1.5,7.7-1.8,10.9c-1.5,1.4-3.4,2.6-5.1,3.8c-1.6,1.1-3.2,2.1-4.8,3.2
			C376.5,431.1,377,431.6,377.3,432z M333.7,402.2c-2.2-0.9-4.1-2-6.1-2.4c-4.3-1-8.3-0.2-11.3,3.4c-2.4,2.9-2.4,7.3,0.1,9.2
			c0.5,0.4,1.5,0.4,2.2,0.5c-0.1-0.7,0.1-1.5-0.2-2.1c-1.4-3.3-0.4-6,3.1-6.9c1.3-0.4,2.9-0.2,4.2,0.1c1.3,0.4,2.5,1.3,3.8,2
			C330.8,404.8,332,403.7,333.7,402.2z M420.5,405.9c1.8-0.8,3.3-1.7,4.9-2.2c2.4-0.7,4.4,0.1,6,2c1.4,1.7,1.4,3.4,0.2,5.2
			c-0.3,0.5-0.1,1.3-0.2,1.9c0.7-0.1,1.5,0,2-0.4c0.7-0.6,1.4-1.4,1.7-2.2c1.2-3.1,0.2-5.8-2.1-8c-4.1-4-11.6-3.9-16.3,0.3
			C418.1,403.7,419.4,404.8,420.5,405.9z M438.4,375.1c3.6-5.3,1.8-11.5-3.9-13.8c-1.1-0.5-2.3-0.9-3.4-1.4
			c-1.6-0.8-3.3-1.8-3.1-3.9c0.1-0.9,0.8-2.1,1.6-2.6c1.8-1.1,3.3,0.2,4.8,1.2c0.7,0.4,1.4,0.8,2.4,1.5c-1-2.8-4-4.6-6.7-4.3
			c-2.7,0.3-4.6,3.1-3.8,5.7c0.6,2.2,2.3,3.4,4.1,4.3c1.4,0.7,2.9,1.3,4.2,2.1c3,1.8,4.1,4.7,2.7,7.9
			C436.6,373.4,437.3,374.1,438.4,375.1z M313.4,356.2c1.4-1,2.3-1.7,3.2-2.3c2.3-1.4,4.2-1.2,5.2,0.5c1,1.7,0.3,3.6-2,4.9
			c-1.1,0.6-2.2,1.1-3.3,1.6c-1,0.5-2,0.8-3,1.4c-4.5,2.6-4.7,10.4-1.3,12.9c0.3-1,1-2.1,0.7-2.7c-2.1-5,0.7-8.1,4.4-9.7
			c1.6-0.7,3.1-1.5,4.5-2.5c2.1-1.6,2.7-3.7,1.8-5.8c-0.8-2-2.4-3-4.5-2.9C316.6,351.9,314.1,353.6,313.4,356.2z M389.8,460.1
			c0.1-0.2,0.1-0.5,0.2-0.7c-0.5-0.2-1.1-0.5-1.6-0.6c-4.6-1.2-7.4-4.1-8.5-8.7c-0.6-2.5-1.1-5-1.6-7.5c-0.2-0.8-0.5-1.7-0.9-2.7
			c-2.7,5.3-1.6,12.1,2.5,16.2C382.6,458.8,385.7,460.9,389.8,460.1z M372.6,439.7c-0.5,1.8-0.8,3.2-1.1,4.6c-0.6,2.5-1,5-1.8,7.4
			c-1.2,3.7-3.9,6-7.6,7c-0.7,0.2-1.3,0.5-2.2,0.8c2.5,1.6,6.4,0.4,9.7-2.7C374.2,452.4,375.7,445.2,372.6,439.7z M402.3,417.3
			c2.6-2.5,3.4-5.5,3.9-8.7c0.4-3,0.2-3.3-2.5-4.3c-1.2,3.6-2.5,7.2-3.9,11.1C400.3,415.8,401.2,416.5,402.3,417.3z M350.8,414.9
			c-0.2,0.1-0.4,0.1-0.5,0.2c-1.2-3.6-2.5-7.2-3.9-11.2c-0.9,0.9-2.6,1.9-2.6,2.8c0.2,2.6,0.9,5.2,1.9,7.6c1.4,3.4,2.4,3.4,5,0.7
			C350.7,415,350.8,414.9,350.8,414.9z M319.3,380.8c0.7,0.3,1.3,0.7,2,0.9c3.3,1,6.7,1.8,10,3c1.9,0.7,3.4,0.3,5-0.7
			c-1.7-0.9-3.4-1.6-5.1-2.2c-2.8-0.9-5.8-1.5-8.6-2.7C320.7,378.4,319.9,379,319.3,380.8z M413.8,383.7c0,0.3,0.1,0.6,0.1,0.9
			c1.3,0.2,2.6,0.6,3.9,0.4c2.2-0.4,4.4-1.1,6.5-1.8c2.2-0.7,4.4-1.5,6.7-2.3c-0.7-2-1.5-2.6-3.5-1.7c-2.3,1-4.8,1.5-7.2,2.3
			C418.1,382.2,415.9,383,413.8,383.7z M372.3,466.7c0.2,0.1,0.4,0.2,0.6,0.3c0.4-0.5,1.1-1,1.1-1.6c0-1.3-0.1-2.7-0.6-4
			c-1.1-2.8-0.7-4.5,1.7-6.3c2.4,2.6,2.5,3.5,1.2,6.8c-0.4,1-0.5,2.3-0.4,3.4c0,0.6,0.8,1.1,1.2,1.7c0.1-0.1,0.3-0.2,0.4-0.4
			c-1.1-2.3-0.9-2.8,0.3-5.3c0.5-1,0.7-2.5,0.4-3.5c-0.8-2.3-2.1-4.5-3.2-6.8c-1,1.9-2.1,3.7-2.9,5.5c-0.7,1.5-1.2,3.2-0.1,4.7
			C373.3,463,373.7,464.7,372.3,466.7z M375.1,403.4c3.6-4.8,3.6-7.4,0-11.1C371.5,396,371.5,398.6,375.1,403.4z M369.4,446.7
			c0.2,0,0.4,0.1,0.5,0.1c0.4-2,0.6-4,1.2-5.9c0.7-2,1.8-3.8,2.8-5.8c-0.3-0.2-0.7-0.6-1.3-1.1C370.5,438.2,368.5,442.1,369.4,446.7
			z M386.5,420.6c1.9-3.1,1.7-4.4-0.7-6.1C385.9,416.5,384.6,418.6,386.5,420.6z M364.4,414.5c-2.4,2-2.5,3.5-0.6,6
			C365.7,418.6,364.2,416.5,364.4,414.5z M408.7,396.8c0.4-1.1,0.7-2,0.9-2.8c-2.8-1.1-3.4-0.9-4.1,1.2
			C406.5,395.6,407.4,396.1,408.7,396.8z M341.5,396.7c1.2-0.6,2.1-1.1,3.1-1.6c-0.7-2.1-1.8-2.3-4.1-1
			C340.8,394.9,341.1,395.7,341.5,396.7z M375,456.6c-1.2,1.9-1.3,3.5,0,5.2C376.4,459.9,376.4,458.8,375,456.6z"/>
		<path d="M377.7,384.5c-0.4-0.7-0.9-1.4-1.4-2.1c-0.3,0.4-0.7,0.7-1.1,1.3c-0.4-0.4-0.9-0.8-1.3-1.2c-0.5,0.7-0.9,1.4-1.4,2.1
			c-0.2-0.1-0.4-0.2-0.7-0.3c-0.6-3,1.2-5.3,2.2-7.8c0.7,0.1,1.3,0.2,2.3,0.4c0.8,2,2.6,4.4,2,7.4
			C378.1,384.3,377.9,384.4,377.7,384.5z"/>
		<path d="M365,339c-0.7,1.7-1.1,3.2-1.9,4.5c-0.3,0.4-1.3,0.4-1.9,0.7c-0.2-0.8-0.4-1.7-0.5-2.5c0-0.2,0.4-0.5,0.7-0.7
			c1.4-1.5,1.4-2.4-0.1-3.7c-1-0.9-1.3-1.7-0.5-2.8c0.7-0.9,1.5-1.1,2.1-0.1C363.6,335.8,364.2,337.4,365,339z"/>
		<path d="M385.3,339.2c0.5-1.6,0.9-3,1.6-4.3c0.3-0.6,1-1.1,1.7-1.2c0.3-0.1,1.1,0.7,1.2,1.2c0.1,0.7-0.4,1.4-0.6,2.2
			c-0.1,0.2-0.3,0.2-0.5,0.4c-1.1,1-1.1,2.1-0.1,3.2c0.3,0.4,0.9,0.7,0.9,1c0,0.8-0.3,1.7-0.5,2.5c-0.7-0.2-1.7-0.2-1.9-0.7
			C386.3,342.2,385.9,340.7,385.3,339.2z"/>
		<path d="M396.4,339.2c-0.6,1.4-1,2.9-1.7,4.1c-0.3,0.5-1.6,1-2,0.8c-1.1-0.6-1.2-1.7-0.4-2.8c0.5-0.6,1.4-1.1,1.4-1.7
			c0-0.9-0.5-1.9-1.1-2.6c-0.9-1.1-1-2.1,0.1-3c1.3-1.1,1.9,0.3,2.3,1C395.5,336.3,395.9,337.7,396.4,339.2z"/>
		<path d="M353.7,339.1c0.6-1.6,1.1-3.1,1.9-4.5c0.2-0.4,1.2-0.5,1.8-0.7c0.3,0.8,0.6,1.6,0.7,2.4c0,0.3-0.5,0.7-0.9,1.1
			c-1.2,1.2-1.2,2.3,0,3.5c0.3,0.3,0.9,0.7,0.9,1c-0.1,0.9-0.5,1.7-0.8,2.5c-0.6-0.3-1.5-0.4-1.8-0.8
			C354.8,342.1,354.4,340.7,353.7,339.1z"/>
		<path d="M375.1,356.6c0.8,1.9,1.7,3.6,2.3,5.4c0.3,0.8,0,1.7,0,2.5c-0.7-0.1-1.3-0.1-2-0.2c-0.2,0-0.5,0-0.7,0.1
			c-0.6,0.1-1.2,0.1-1.8,0.2c-0.1-0.8-0.4-1.7-0.2-2.3C373.3,360.4,374.2,358.5,375.1,356.6z"/>
		<path d="M402.5,346.1c1.1,0.9,1.4,1.8-0.1,2.7c-1.4,0.8-1.2,1.6-0.7,2.9c0.2,0.5-0.3,1.4-0.6,2.2c-0.5-0.4-1.2-0.8-1.4-1.3
			C398.9,350.1,400.1,347.5,402.5,346.1z"/>
		<path d="M347,346.2c3.3,1.5,4.3,4.2,3.2,6.5c-0.2,0.5-0.9,0.7-1.4,1.1c-0.2-0.6-0.9-1.5-0.6-1.8c1-1.6,0.7-2.5-0.9-3.5
			C346.9,348.2,347.1,347,347,346.2z"/>
		<path d="M405.8,346.4c2.1,2.9,1.9,5.9-0.1,7.6c-0.4,0.3-1.1,0.3-1.7,0.4c0.1-0.7-0.1-1.8,0.2-2c1.6-0.9,1.8-1.9,0.9-3.5
			C404.8,348.5,405.4,347.6,405.8,346.4z"/>
		<path d="M344,347c1.3,0.5,1.8,1.2,1,2.4c-0.8,1.2-0.6,2,0.6,2.9c0.5,0.3,0.4,1.4,0.5,2.2c-0.7-0.2-1.5-0.2-2-0.7
			C342.4,351.9,342.3,349.2,344,347z"/>
		<path d="M359.3,337.1c0.8,0.8,1.3,1.4,1.8,1.9c-0.6,0.5-1.2,1.3-1.8,1.4c-0.6,0.1-1.2-0.8-1.8-1.2
			C358,338.6,358.5,338,359.3,337.1z"/>
		<path d="M390.6,341.1c-0.7-0.9-1.2-1.5-1.6-2c0.6-0.4,1.3-1.2,2-1.2c0.5,0,1.1,0.9,1.7,1.3C392.1,339.7,391.5,340.2,390.6,341.1z"
			/>
	</g>
	<g>
		<path d="M115.5,274.6c-59.6,0-108,48.4-108,108s48.4,108,108,108s108-48.4,108-108S175.1,274.6,115.5,274.6z M113.2,481.9
			c-52.4-1.2-95.3-43.6-95.3-97.3c0-55.8,45-98.3,98.2-97.7c54.7,0.6,97.8,45.1,96.8,99.1C211.9,440.2,167.6,482.8,113.2,481.9z"/>
		<path d="M116.7,294.6c-50.4-0.6-91,40.4-91.1,89.5c-0.1,49.2,39.8,89.8,88.6,90.1c49.4,0.8,90.7-39.3,91-89.4
			C205.4,335.9,165.3,295.1,116.7,294.6z M72.2,313.6c4.5-0.2,8.3,3.2,8.4,7.9c0.1,6.8-3.7,11.5-8.5,16.3c-1.3-1.6-2.4-2.9-3.5-4.2
			c1.4-1.9,2.9-3.5,3.9-5.3c0.8-1.5,1.3-3.4,1.4-5.1c0.2-2.8-2-4.3-4.7-3.3c-1,0.3-1.9,1.1-2.8,1.7c-0.7,0.4-1.3,0.9-2.1,1.4
			C64.1,318.4,68.2,313.8,72.2,313.6z M42.8,343c1-3.6,2.7-6.9,5.5-9.5c3.6-3.3,7.7-3.9,12.2-2.4c8.2,2.8,12.6,9.1,13.1,18.1
			c0.4,7-1.6,13.5-5,19.4c-3.6,6.4-7.8,12.5-11.7,18.7c-0.8,1.2-1.5,1.3-2.7,0.6c-4.3-2.3-4.5-2.8-1.7-6.8c3.2-4.7,6.5-9.3,9.6-14
			c3.9-5.9,5.3-12.6,4.5-19.6c-0.5-4.7-3.1-8.1-7.3-10.2c-5.3-2.5-11.6,0.6-13.9,6.8c-0.4,1.1-0.8,2.3-1.3,3.8
			C42.3,346.2,42.4,344.6,42.8,343z M43.1,417.1c-2.7-7.1-2-13.9,1-20.7c0.6-1.4,1.4-1.6,2.7-0.9c4.3,2,4.3,2,3.2,6.6
			c-1.6,6.9-0.9,13.5,3.4,19.4c3.8,5.2,9.6,7,15.7,8.1c1.5,0.3,3,0.3,4.6,0.4c0,2.2,0,4.4,0,6.9c-2.9-0.2-5.7,0-8.4-0.5
			C54.5,434,47,427.5,43.1,417.1z M96,409.8c-0.1-1.7,0.6-2.3,2.1-2.6c3.6-0.8,4-0.6,4.9,2.9c0.7,2.6,1,5.4,1.3,8.1
			c0.1,0.7-0.2,1.8-0.8,2.3c-5.5,4.8-10.5,10.1-17.3,13.3c-0.7,0.3-1.4,0.6-2.8,1.2c-0.2-2.5-0.6-4.6-0.5-6.6c0-0.7,1.1-1.4,1.8-2
			c2.5-2,5.1-3.8,7.4-6C95.3,417.6,96.3,413.8,96,409.8z M93.8,407.2c-4.5,2.9-8.9,5.9-13,9.3c-3.8,3.2-7.1,7-10.6,10.6
			c-1,1-2,1-3.2,0.8c-5.1-1.2-5.6-2.1-2.5-6.1c2.6-3.4,5.8-6.3,8.8-9.3c3.6-3.7,7.2-7.2,10.9-10.8c0.5-0.5,1.2-1.1,1.9-1.1
			c3.1-0.1,6.1-0.2,9.2,0c2.6,0.2,4.2,1.8,5.4,4.1C98.3,405.6,95.8,406,93.8,407.2z M82.6,440.6c0.1,0.7-0.4,1.7-1,2
			c-1.6,0.9-3.3,1.4-5.3,2.2c-0.3-1.9-0.6-3.4-0.7-4.9c-0.3-4.5-0.6-9-0.9-13.5c-0.2-3.2,1.4-5.5,5-6.9c0.5,2.7,1.1,5.2,1.5,7.8
			C81.8,431.8,82.3,436.2,82.6,440.6z M73.5,410.5c-1,0.9-2,1.8-3.1,2.8c-2.2-2-4.4-4.1-7.6-3.5c-3.6,0.8-2.7,4.4-3.9,6.7
			c-2.1-1.4-3-3.9-2.5-6.8c0.5-2.5,2.5-4.5,5.2-4.9c4.3-0.6,8.2,0.6,11.8,3.1C74.4,408.8,74.5,409.6,73.5,410.5z M62.8,446.5
			c-1.3-2.6-2.1-5.5-3-8.2c-0.2-0.5,0-1,0-1.8c1.8,0.5,3.4,0.7,4.8,1.3c1.2,0.5,2.1,1.6,3.2,2.4c0.2,0.2,0.3,0.6,0.5,0.8
			c4.2,5.8,6.9,6.3,12.2,3.6c3.5-1.8,6.8-3.8,10.1-5.9c3.2-2.1,6.7-2.8,10.4-2.7c1.4,0,1.9,0.6,1.4,1.9c-0.4,0.9-0.6,1.8-0.9,2.8
			c-0.5,1.4-1.5,2-3.1,2.6c-3,1-5.8,2.6-8.6,4c-3.6,1.9-7.1,4.3-10.9,5.6C72.6,455.2,65.8,452.3,62.8,446.5z M109,461.9
			c-1.5,1.3-3.3,2-5.8,1.4c0.6-0.6,0.9-1.2,1.4-1.6c3.5-2.8,5.4-6.3,4.6-10.9c-0.4-2.5,0.5-4.9,1.8-7.3
			C115,449.3,114,457.6,109,461.9z M109.6,442.9c-1.8,6.3-5.5,11.3-10.7,15.3c-5.3,4-14.6,2.3-18.9-3.7c2-1,3.7-1.9,5.6-2.7
			c0.5-0.2,1.2-0.2,1.6,0c3.5,1.6,6.5,0.6,9.3-1.6c2.8-2.2,4.6-5.2,5.7-8.5c3.2-9.7,4.5-19.5,3.1-29.7c-0.7-5-3.3-9-7.2-12.2
			c-0.7-0.6-1.9-1-2.8-0.9c-5.7,0.2-11.5,0.4-17.2,0.9c-7.1,0.6-14.1,0.1-21-1.7C44,394.5,36,385.6,36.8,371.1
			c0.3-5.8,3.2-10.8,6.6-15.5c4.2-5.8,9.5-10.5,15.4-14.6c1.5-1.1,2.6-1.1,3.8,0.4c1.8,2.2,1.9,2.8,0.2,4.4
			c-3.6,3.5-7.2,7-10.7,10.6c-1.4,1.4-2.5,3.1-3.8,4.7c-3.9,4.9-5,10.6-3.7,16.6c1.2,5.9,5,9.8,10.5,12c9.9,3.8,19.7,3,29.3-0.9
			c3.1-1.3,4-3.3,2.9-5.4c-1.2-2.3-3.7-2.9-6.4-1.4c-0.9,0.5-1.7,1.2-2.5,1.9c-0.7,0.7-1.3,1.6-1.9,2.4c-8.2-6.4-6.9-21,2.6-28.1
			c1.4,4,1,9.4,7.5,9.8c-0.5,1.5-0.9,2.9-1.4,4.2c2.4-1.4,2.9-3.7,2.8-6c-0.1-2.2-0.8-4.4-1.3-6.5c1.8,0.7,10.5,11.6,12,15.2
			c-1.8-0.5-3.4-0.9-5.2-1.4c-0.7,3.5,1.2,7.6,3.9,9.1c3.4,1.9,6.8,3.6,10.1,5.5c0.8,0.5,1.6,1.3,2,2.2c1.2,2.7,2.3,5.4,3.1,8.2
			c0.8,2.7,1.5,5.6,1.6,8.4C114.6,419.2,112.9,431.1,109.6,442.9z M113,391.2c-3.2-4.5-6.1-9-9.3-13.2c-7.4-9.8-15-19.6-22.6-29.2
			c-2.2-2.8-3.3-5.3-1.9-8.8c2.4-6.3,4.5-12.6,6.5-19c1.2-3.8,3.4-6.4,7-7.8c6.3-2.6,12.7-5.1,19-7.6c0.6-0.2,1.6,0,2.1,0.4
			c1.1,0.8,2,0.9,3.1,0c0.6-0.4,1.6-0.6,2.3-0.4c6.8,2.7,13.6,5.5,20.4,8.3c2.2,0.9,3.6,2.5,4.4,4.7c2.8,8,5.5,16,8.2,24
			c0.5,1.4,0.2,2.6-0.8,3.8c-11.5,13.8-22.6,28-32.5,43c-0.3,0.5-0.8,0.9-1.3,1.5c-0.8-1-1.5-1.7-2.2-2.6
			C114.6,389.2,113.8,390.1,113,391.2z M116.6,404.5c0.3-3.7,2.3-7.2,3.2-10.8c1-3.6,3.1-5.9,6.6-7.2c2.4-0.9,4.5-2.3,6.8-3.5
			c3-1.5,4-4.1,4.1-7.2c0.1-1.8-0.6-2.2-2.3-1.7c-0.9,0.2-1.7,0.6-3.1,1.2c3.7-5.9,7.5-11,12-15.7c-1.2,4.6-2.1,9,1,13.1
			c0.2,0,0.4-0.1,0.6-0.1c-0.5-1.5-1-3-1.5-4.7c6.7-0.1,6.6-5,7.4-9.5c11.6,7.9,9.9,22.6,2.9,28c-0.5-0.7-1-1.3-1.5-2
			c-1.5-1.8-3.3-2.9-5.7-3.1c-1.7-0.1-2.9,0.7-3.6,2.2c-0.7,1.6-0.6,3.3,0.9,4.2c1.7,1.1,3.6,2.1,5.6,2.7c7.3,2.2,14.6,2.1,22.1,0.7
			c1.9-0.4,5,3.8,4,5.5c-0.4,0.8-1.6,1.3-2.6,1.5c-8.1,2-16.4,2.3-24.7,1.5c-3.8-0.4-7.7-0.4-11.5-0.6c-3.6-0.2-6,1.6-8,4.3
			c-2.9,4-4.4,8.5-4.3,13.4c0.1,5.5,0.7,11.1,1.2,16.6c0.1,1.2-0.1,1.9-1.1,2.6c-1.6,1.1-3.1,2.4-4.9,3.8c-0.3-1.7-0.6-3.2-0.9-4.6
			C117.2,424.9,115.8,414.7,116.6,404.5z M131.2,406.9c3.3,0.6,3.3,0.6,3.4,4c0.2,7,4.2,11.4,9.9,14.6c4,2.2,8.3,3.4,12.8,4
			c3.1,0.4,5.1,2.7,4.9,5.7c0,0.4-0.6,1.1-1.1,1.2c-1.3,0.3-2.6,0.3-3.9,0.4c-9.3-0.4-17.1-4.4-23.8-10.6c-1.9-1.7-3.8-3.4-5.7-5.1
			c-1.1-1-1.9-2-1.5-3.7c0.7-2.8,1.1-5.7,1.7-8.6C128.4,407.2,129.5,406.6,131.2,406.9z M129.9,405c2.1-3.1,4.3-5.1,7.8-5
			c1.4,0,2.7,0.1,4.1,0.2c2.5,0.1,4.5,0.8,6,3.2c1.2,2.1,3.3,3.6,5.2,5.3c0.8,0.8,0.9,1.3,0.4,2.3c-3,5.3-3,5.3-7.9,1.7
			C140.8,409.3,136.2,405.8,129.9,405z M156.1,425.4c-0.4,2.6-0.7,2.7-3.1,2.1c-3.2-0.9-3.4-1.3-2.7-4.5c1.1-5,2.6-9.7,6.2-13.5
			c3.2-3.5,7.2-5,11.9-4.6c2.4,0.2,4.3,1.3,5.2,3.5c1,2.4,0.8,4.9-0.4,7.2c-0.2,0.4-0.8,0.6-1.5,1c-0.2-1.2-0.3-2-0.5-2.8
			c-0.7-3.6-3.4-5.1-6.7-3.4c-1.5,0.8-3,2.1-4,3.6C158,417.2,156.8,421.2,156.1,425.4z M121,461.3c-4.5-4.2-4.6-13-1.2-18.1
			c4.7-7.2,11.9-9.1,19.4-4.8c2,1.2,4,2.4,5.9,3.7c0.5,0.4,0.8,1.4,0.7,2.1c-0.4,1.5-1.1,3-1.7,4.8c-1.9-1.1-3.6-2.2-5.3-3.1
			c-2.9-1.6-5.8-3.3-9.4-2.2c-3.9,1.1-6.7,3.5-7.7,7.5c-1,4,0.6,7.1,3.4,9.8c0.8,0.8,1.7,1.5,2.8,2.5C124.8,464,122.8,463,121,461.3
			z M131,457.5c-2.2-1.8-4-4.1-6-6.2c-1.2-1.3-1-2.6,0.3-3.7c0.1-0.1,0.3-0.3,0.4-0.4c3.1-2.7,3.3-2.6,6,0.4
			c1.3,1.5,2.9,2.9,4.6,3.9c4,2.3,8,0.9,9.6-3.5c0.9-2.5,1.4-5.3,2-7.9c0.2-0.9,0.4-1.9,0.6-3.1c1.9,0.3,3.6,0.6,5.4,0.9
			c1.1,0.2,1.7,0.7,1.4,1.9c-1.3,4.5-2,9.2-4,13.4C147.8,460.7,137.4,462.7,131,457.5z M159.7,453.1c-1.7,0.5-3.7,0.2-5.5,0.2
			c0.3-1.5,0.4-3,0.9-4.4c0.3-1,0.9-2.3,1.7-2.7c7.4-4,9.1-9.4,5.1-16.7c-0.8-1.5-1.8-3-2.8-4.5c-0.9-1.2-1.1-2.4-0.4-3.8
			c0.8-1.7,1.6-3.4,2.6-5.4c5.3,5.6,9.1,11.4,10.1,18.5C172.5,441.7,166.5,451.2,159.7,453.1z M181.3,427.6
			c-1.5,1.7-3.4,3.2-5.3,4.6c-0.8,0.6-1.8,0.8-3,1.4c-0.5-2.2-1.1-4-1.4-5.9c-0.1-0.5,0.4-1.4,0.9-1.7c7.7-4.5,12.1-16.3,7-27.4
			c-2.9-6.3-6.7-12.2-10.3-18.2c-3.7-6.1-7.7-11.9-10.1-18.7c-2.1-5.9-2-12-0.9-18.1c0.1-0.6,0.3-1.1,0.6-1.7
			c0.1-0.2,0.2-0.3,0.6-0.7c1.7,1.4,3.4,2.8,5,4.3c0.3,0.3,0.4,1,0.3,1.4c-1.6,7.3,0.2,14,4.1,20.1c3.8,5.9,8,11.4,11.6,17.4
			c2.7,4.5,5.2,9.2,7,14.1C191.4,409.4,188.8,419.1,181.3,427.6z M187.8,390.1c-0.3,0.3-0.7,0.6-1.2,1.1c-1.1-2-2.3-3.8-3.2-5.7
			c-0.2-0.4,0-1.1,0.2-1.5c4.8-7.3,4.2-14.6-0.4-21.6c-4.3-6.7-10.3-11.8-16.1-17c-3.9-3.5-7.7-7-11.3-10.8
			c-3.5-3.8-6.1-8.1-5.5-13.7c0.4-3.9,2.6-6.3,6.4-7.1c2.5-0.5,4.6,0.1,6.5,1.9c1.9,1.9,3.1,4.1,3.7,6.6c-0.1,0.1-0.3,0.3-0.4,0.4
			c-0.7-0.4-1.4-0.8-2.1-1.3c-0.6-0.4-1.2-1-1.9-1.4c-2.7-1.5-5.4,0-5.6,3c-0.2,2.5,0.6,4.8,2.3,6.5c3.5,3.4,7.1,6.6,10.8,9.9
			c4.4,3.9,9.1,7.4,13.3,11.5c5,4.8,8.8,10.6,10.3,17.5C195.2,376.4,193.1,383.7,187.8,390.1z M184.1,335.3c1.7,2.4,2.8,5.2,3.9,8
			c0.6,1.5,0.5,3.2-1.3,4.4c-0.8-1.8-1.5-3.5-2.3-5.2c-1.3-2.8-3.5-4.6-6.4-5.6c-2-0.7-4-0.7-5.9,0.2c-1.1,0.5-1.9,0.5-2.8-0.3
			c-1.2-1-2.4-1.9-3.8-3C171.6,328.5,179.6,329.2,184.1,335.3z"/>
	</g>
</g>
</svg>
